<svg width="66" height="66" viewBox="0 0 66 66" fill="none" xmlns="http://www.w3.org/2000/svg">
<g clip-path="url(#clip0_19_81)">
<mask id="mask0_19_81" style="mask-type:luminance" maskUnits="userSpaceOnUse" x="0" y="0" width="66" height="66">
<path d="M65.072 0H0.00195312V65.07H65.072V0Z" fill="white"/>
</mask>
<g mask="url(#mask0_19_81)">
<path d="M54.582 10.2653C60.6823 16.3656 64.4586 24.354 64.4586 33.0689C64.4586 50.7887 49.6436 65.3133 31.7784 65.3133C26.4043 65.3133 21.1755 63.8609 16.3824 61.3917L-0.611328 65.7491L3.89127 49.0458C1.13162 44.2528 -0.466084 38.7335 -0.466084 32.9235C-0.466084 15.2036 14.0585 0.679077 31.7784 0.679077C40.4931 0.679077 48.6269 4.16497 54.582 10.2653ZM31.7784 59.794C46.5935 59.794 58.9393 47.7385 58.9393 33.0689C58.9393 25.8065 55.8891 19.1253 50.8055 14.0417C45.7219 8.95807 39.0407 6.19841 31.9236 6.19841C17.1086 6.19841 5.05324 18.2538 5.05324 32.9235C5.05324 38.0071 6.50571 42.9455 9.12012 47.303L9.84636 48.3197L7.08668 58.1963L17.2539 55.4367L18.1253 56.0177C22.3374 58.4869 26.9852 59.794 31.7784 59.794ZM46.5935 39.7502C47.3196 40.186 47.9008 40.3311 48.0459 40.7669C48.3363 41.0573 48.3363 42.655 47.6102 44.5432C46.884 46.4315 43.6885 48.1743 42.236 48.3197C39.6216 48.7553 37.5882 48.6101 32.5046 46.2863C24.3708 42.8003 19.1421 34.6666 18.7063 34.2308C18.2706 33.6499 15.5109 29.8734 15.5109 25.8065C15.5109 21.885 17.5444 19.9967 18.2706 19.1253C18.9968 18.2538 19.8683 18.1085 20.4494 18.1085C20.8849 18.1085 21.4661 18.1085 21.9016 18.1085C22.4828 18.1085 23.0637 17.9633 23.7899 19.561C24.3708 21.1587 26.1139 25.0804 26.2591 25.5161C26.4043 25.9519 26.5497 26.3875 26.2591 26.9686C24.8066 30.0188 23.0637 29.8734 23.9351 31.3259C27.1306 36.7 30.1808 38.5881 34.9738 40.9121C35.7001 41.3479 36.1357 41.2027 36.7169 40.7669C37.1524 40.186 38.7503 38.2977 39.1859 37.5714C39.767 36.7 40.348 36.8452 41.0741 37.1358C41.8004 37.4262 45.7219 39.3144 46.5935 39.7502Z" fill="white"/>
</g>
</g>
<defs>
<clipPath id="clip0_19_81">
<rect width="65.07" height="65.07" fill="white"/>
</clipPath>
</defs>
</svg>
