<svg width="66" height="66" viewBox="0 0 66 66" fill="none" xmlns="http://www.w3.org/2000/svg">
<g clip-path="url(#clip0_19_89)">
<mask id="mask0_19_89" style="mask-type:luminance" maskUnits="userSpaceOnUse" x="0" y="0" width="66" height="66">
<path d="M65.07 0H0V65.07H65.07V0Z" fill="white"/>
</mask>
<g mask="url(#mask0_19_89)">
<path d="M65.07 33.2141C65.07 15.2456 50.5035 0.679077 32.535 0.679077C14.5666 0.679077 0 15.2456 0 33.2141C0 48.4716 10.5049 61.2749 24.6758 64.7912V43.1568H17.9671V33.2141H24.6758V28.9299C24.6758 17.8563 29.6876 12.7235 40.5593 12.7235C42.6208 12.7235 46.1775 13.1283 47.6325 13.5317V22.5438C46.8646 22.4631 45.5307 22.4229 43.8741 22.4229C38.5397 22.4229 36.4782 24.4439 36.4782 29.6977V33.2141H47.1054L45.2796 43.1568H36.4782V65.511C52.5857 63.5654 65.07 49.8486 65.07 33.2141Z" fill="white"/>
</g>
</g>
<defs>
<clipPath id="clip0_19_89">
<rect width="65.07" height="65.07" fill="white"/>
</clipPath>
</defs>
</svg>
