<svg width="65" height="65" viewBox="0 0 65 65" fill="none" xmlns="http://www.w3.org/2000/svg">
<path fill-rule="evenodd" clip-rule="evenodd" d="M35.2087 32.2291V51.4583H29.792V32.2291C23.6109 30.9744 18.9587 25.5096 18.9587 18.9583C18.9587 11.4794 25.0215 5.41663 32.5003 5.41663C39.9791 5.41663 46.042 11.4794 46.042 18.9583C46.042 25.5096 41.3896 30.9744 35.2087 32.2291ZM24.3753 38.3426V43.8327C16.4323 44.8242 10.8337 47.0889 10.8337 48.75C10.8337 50.9356 20.5272 54.1666 32.5003 54.1666C44.4736 54.1666 54.167 50.9356 54.167 48.75C54.167 47.0889 48.5683 44.8242 40.6253 43.8327V38.3426C51.6101 39.5462 59.5837 43.2461 59.5837 48.75C59.5837 55.5392 47.4511 59.5833 32.5003 59.5833C17.5496 59.5833 5.41699 55.5392 5.41699 48.75C5.41699 43.2461 13.3907 39.5462 24.3753 38.3426ZM40.6253 18.9583C40.6253 23.4456 36.9878 27.0833 32.5003 27.0833C28.0129 27.0833 24.3753 23.4456 24.3753 18.9583C24.3753 14.471 28.0129 10.8333 32.5003 10.8333C36.9878 10.8333 40.6253 14.471 40.6253 18.9583Z" fill="black"/>
</svg>
