<?xml version="1.0" standalone="no"?>
<!DOCTYPE svg PUBLIC "-//W3C//DTD SVG 20010904//EN"
 "http://www.w3.org/TR/2001/REC-SVG-20010904/DTD/svg10.dtd">
<svg version="1.0" xmlns="http://www.w3.org/2000/svg"
 width="1522.000000pt" height="1358.000000pt" viewBox="0 0 1522.000000 1358.000000"
 preserveAspectRatio="xMidYMid meet">

<g transform="translate(0.000000,1358.000000) scale(0.100000,-0.100000)"
fill="#000000" stroke="none">
<path d="M9910 13408 c0 -71 24 -277 41 -363 30 -146 79 -236 194 -350 96 -96
171 -142 274 -168 49 -12 58 -19 98 -75 24 -34 42 -62 40 -62 -2 0 -46 20 -98
44 -92 43 -400 167 -449 181 -14 4 -72 53 -130 109 -120 118 -195 176 -261
204 -124 53 -306 64 -599 36 -154 -14 -200 -24 -200 -42 0 -15 25 -39 100 -96
41 -31 113 -90 159 -131 148 -130 250 -168 451 -167 63 0 156 7 205 17 237 43
199 44 332 -5 180 -66 453 -187 453 -201 0 -4 -28 -10 -62 -13 -67 -7 -126 9
-308 82 -136 55 -236 50 -406 -18 -76 -30 -312 -179 -349 -220 -16 -18 -17
-22 -4 -35 13 -13 161 -57 359 -106 35 -9 112 -14 215 -14 157 0 161 1 215 29
75 39 132 87 192 161 30 38 61 66 77 70 14 4 67 7 117 6 l91 0 124 -67 c120
-65 340 -194 407 -239 l33 -23 -57 -7 c-54 -6 -61 -5 -158 44 -55 28 -132 68
-171 88 -70 38 -70 38 -190 38 -97 0 -134 -4 -195 -23 -80 -24 -322 -142 -368
-178 -36 -29 -23 -44 76 -85 42 -17 126 -56 185 -86 141 -70 222 -89 322 -74
133 19 276 86 398 186 44 35 64 45 93 45 49 0 164 -20 189 -33 53 -27 475
-353 491 -379 5 -8 -12 -9 -53 -6 -64 6 -105 29 -278 155 -94 68 -147 86 -265
86 -109 0 -213 -23 -380 -85 -218 -82 -218 -79 -40 -184 36 -21 91 -57 123
-80 79 -58 152 -91 229 -104 142 -22 339 31 507 137 49 32 58 34 104 28 27 -4
78 -17 113 -29 60 -20 75 -32 240 -196 97 -96 194 -197 216 -223 l41 -48 -39
7 c-68 12 -96 30 -214 138 -63 58 -133 115 -155 125 -96 48 -219 62 -355 41
-71 -11 -310 -67 -347 -81 -42 -16 -27 -44 65 -118 48 -39 119 -98 157 -132
84 -73 123 -94 212 -115 121 -29 329 4 492 77 66 30 73 31 118 20 73 -18 155
-59 181 -89 129 -154 358 -459 350 -467 -3 -3 -25 2 -51 11 -38 13 -61 33
-134 117 -161 187 -191 210 -314 243 -85 22 -265 23 -436 1 -73 -10 -139 -20
-148 -23 -28 -11 -15 -37 53 -109 37 -39 103 -112 148 -161 120 -132 197 -164
393 -164 114 0 247 19 323 46 22 8 51 14 63 14 34 0 161 -67 189 -101 41 -48
183 -284 285 -472 30 -56 30 -58 9 -51 -58 17 -80 41 -174 179 -101 151 -133
185 -219 227 -91 46 -183 61 -398 66 -108 2 -208 1 -222 -2 -37 -9 -31 -34 21
-102 26 -32 74 -102 108 -154 98 -149 171 -202 328 -234 91 -19 268 -21 386
-4 74 10 87 9 119 -6 75 -36 131 -88 159 -151 15 -33 39 -87 54 -120 73 -160
160 -375 160 -396 0 -5 -16 1 -36 14 -30 18 -51 52 -118 180 -53 103 -96 172
-125 202 -55 57 -159 108 -281 139 -104 26 -389 62 -414 53 -25 -10 -19 -35
28 -116 24 -42 63 -115 85 -162 54 -115 113 -179 204 -224 121 -58 210 -77
397 -82 160 -5 166 -6 205 -33 62 -44 102 -91 119 -140 65 -199 160 -543 154
-560 -2 -6 -17 4 -35 20 -20 19 -39 53 -53 97 -64 195 -101 273 -155 331 -60
65 -166 126 -287 165 -116 38 -344 90 -362 84 -24 -9 -20 -38 18 -129 18 -46
46 -120 60 -165 46 -138 106 -209 234 -276 110 -57 345 -117 459 -117 27 0 44
-11 91 -60 l59 -60 21 -113 c26 -135 58 -348 67 -437 4 -36 9 -74 12 -85 5
-17 1 -16 -24 8 -24 22 -33 42 -43 100 -24 137 -61 270 -87 319 -49 90 -168
181 -328 253 -105 47 -268 105 -299 108 -41 3 -45 -23 -17 -117 11 -39 25
-100 31 -136 17 -99 48 -186 86 -235 l33 -44 -37 -6 c-20 -3 -63 -12 -94 -20
l-58 -15 -147 74 c-82 41 -177 86 -213 101 -36 15 -83 35 -105 45 -22 10 -57
23 -77 31 -21 7 -38 15 -38 19 0 3 18 15 39 27 49 28 101 91 145 176 38 72 39
94 9 192 -47 152 -198 238 -363 208 -43 -8 -47 -7 -114 44 -182 137 -439 202
-728 186 -93 -5 -108 -4 -145 16 -126 64 -252 94 -373 89 -84 -3 -102 -7 -150
-34 l-55 -31 -115 9 c-205 17 -394 -15 -470 -78 -26 -23 -33 -24 -67 -14 -21
6 -84 13 -140 17 l-103 6 0 116 0 117 46 13 c69 21 158 85 222 161 97 115 191
298 192 371 0 60 -37 189 -81 279 -50 102 -159 217 -254 267 -164 87 -400 114
-633 74 l-123 -21 -32 33 c-71 72 -197 141 -318 172 -157 42 -387 55 -572 35
-92 -10 -93 -10 -154 19 -90 44 -246 96 -365 123 -85 19 -131 22 -263 22 -140
0 -172 -4 -257 -27 -117 -31 -238 -92 -328 -164 l-65 -53 -85 6 c-47 3 -91 7
-98 10 -24 7 -228 -17 -307 -37 -310 -79 -553 -270 -626 -493 -20 -60 -25 -67
-43 -61 -12 3 -53 11 -93 17 -60 9 -84 8 -141 -6 -61 -15 -83 -15 -180 -4
-182 20 -328 -11 -445 -94 -29 -21 -41 -22 -132 -19 -172 5 -244 -30 -295
-143 -38 -85 -44 -138 -25 -231 20 -95 15 -103 -52 -82 -132 42 -320 57 -473
37 -52 -7 -187 -13 -300 -14 -128 -1 -226 -7 -260 -15 -111 -27 -198 -88 -216
-152 -8 -29 -14 -33 -64 -43 -90 -18 -155 -67 -185 -140 -25 -59 -21 -181 10
-301 14 -55 32 -135 40 -178 7 -43 28 -108 45 -144 35 -77 128 -197 168 -217
45 -23 170 -37 302 -35 l125 3 45 -33 c25 -18 57 -39 72 -47 26 -14 27 -15 14
-52 -7 -20 -21 -64 -31 -97 -10 -33 -23 -66 -29 -72 -7 -8 -72 -16 -181 -23
-414 -26 -643 -100 -813 -264 -131 -126 -191 -298 -179 -514 5 -84 3 -104 -8
-109 -8 -3 -48 13 -89 36 -82 45 -122 51 -157 22 -23 -18 -23 -18 -75 24 -29
24 -68 49 -87 56 l-34 12 19 44 c21 47 33 148 43 346 8 169 14 167 -165 63
-281 -163 -410 -288 -442 -428 -10 -43 -14 -48 -39 -48 -26 0 -28 -3 -32 -47
-3 -27 -3 39 -1 145 4 184 5 196 29 236 36 61 62 81 135 101 221 59 435 180
508 287 41 61 59 113 78 225 9 54 24 133 35 176 20 86 17 107 -13 107 -22 0
-271 -106 -356 -151 -132 -70 -243 -172 -278 -256 -19 -44 -48 -178 -64 -286
-10 -69 -18 -94 -37 -115 l-24 -27 6 105 c5 101 35 351 55 474 10 63 38 112
93 162 28 27 46 33 138 47 204 31 376 101 478 193 67 61 96 113 134 244 14 47
38 119 53 161 16 44 25 83 21 93 -9 23 -31 19 -222 -36 -246 -70 -400 -160
-473 -275 -17 -27 -51 -116 -77 -203 -36 -119 -54 -162 -76 -184 -15 -17 -31
-28 -34 -25 -6 7 16 114 61 294 84 333 89 346 180 416 l51 39 100 0 c109 0
231 19 333 52 167 54 237 116 311 276 28 59 68 141 90 184 22 43 36 83 33 92
-8 21 -28 20 -182 -4 -254 -41 -386 -86 -490 -169 -49 -39 -60 -57 -142 -224
-75 -154 -94 -185 -124 -205 -20 -12 -36 -20 -36 -18 0 16 102 292 156 423 69
168 94 204 174 251 45 27 45 27 265 27 181 0 231 4 280 18 135 40 217 103 286
219 23 40 69 112 102 159 86 127 88 124 -123 123 -255 -2 -399 -34 -514 -113
-50 -35 -65 -55 -174 -230 -65 -105 -84 -128 -121 -148 -24 -13 -46 -23 -48
-23 -8 0 203 404 253 485 41 66 60 86 109 116 92 55 109 58 190 38 240 -62
483 -43 602 48 55 41 65 52 141 148 30 39 79 96 109 127 57 61 67 92 31 102
-53 14 -302 28 -403 23 -115 -6 -189 -23 -266 -63 -54 -27 -77 -50 -201 -204
-81 -99 -99 -117 -142 -133 -27 -9 -50 -16 -52 -14 -5 5 202 307 284 415 72
94 109 122 204 153 l66 21 102 -36 c178 -63 341 -81 470 -50 88 20 128 46 251
161 58 54 126 117 152 139 26 23 47 47 47 53 0 19 -54 37 -200 67 -106 22
-163 28 -265 29 -205 0 -249 -20 -430 -196 -118 -115 -156 -139 -218 -139 -23
0 86 129 274 324 146 151 164 162 290 186 53 10 55 10 164 -44 176 -88 327
-119 454 -96 83 15 120 34 261 134 63 45 139 97 168 115 85 54 76 64 -104 125
-183 62 -275 79 -403 74 -123 -4 -179 -25 -271 -99 -141 -114 -201 -151 -259
-159 -31 -4 -58 -6 -60 -4 -8 7 237 219 401 347 75 59 92 67 160 81 121 25
139 22 210 -29 33 -25 102 -66 152 -90 214 -105 373 -102 566 10 41 24 119 64
173 89 131 61 130 69 -10 139 -211 106 -322 139 -462 138 -107 -1 -157 -15
-248 -74 -40 -25 -104 -62 -143 -82 -63 -32 -79 -36 -133 -33 l-62 3 120 81
c115 78 331 211 405 249 27 15 59 19 140 19 l106 1 89 -91 c189 -191 336 -209
743 -90 192 57 235 76 226 101 -6 14 -151 109 -264 172 -30 17 -91 43 -135 59
-69 24 -95 28 -190 28 l-110 1 -128 -58 c-157 -71 -204 -82 -277 -70 l-55 9
175 86 c96 46 227 106 291 132 l117 48 93 -17 c138 -25 386 -31 471 -11 118
28 188 70 314 188 63 59 139 126 169 149 55 41 72 66 57 81 -24 24 -487 38
-611 17 -93 -15 -178 -45 -239 -85 -54 -35 -173 -148 -247 -235 -33 -38 -57
-53 -145 -89 -121 -49 -293 -127 -397 -181 -40 -21 -73 -35 -72 -31 0 4 19 34
42 66 37 51 50 62 88 72 85 21 171 75 255 159 138 138 191 265 213 512 12 130
14 253 5 253 -5 0 -256 -215 -438 -375 -90 -80 -119 -128 -143 -238 -16 -77
-13 -239 6 -290 9 -23 6 -32 -24 -69 -19 -24 -53 -68 -77 -99 -36 -48 -66 -70
-189 -143 -81 -47 -209 -129 -286 -180 l-140 -94 30 73 c25 59 36 75 56 80 73
18 195 119 261 215 84 123 116 217 126 367 6 85 -10 342 -24 397 -7 27 -8 27
-63 -36 -368 -416 -388 -440 -404 -486 -36 -103 -29 -299 16 -417 l19 -49 -24
-46 c-82 -156 -97 -174 -236 -285 -74 -60 -187 -155 -249 -211 -63 -57 -116
-102 -118 -100 -2 1 5 35 15 75 17 64 23 75 55 94 117 71 217 211 268 377 40
127 29 318 -32 583 -12 48 -24 87 -28 87 -8 0 -36 -40 -226 -320 -72 -107
-140 -216 -150 -242 -28 -75 -18 -235 24 -357 17 -51 38 -103 46 -114 23 -32
19 -54 -30 -178 -41 -104 -50 -119 -118 -189 -82 -84 -233 -252 -316 -350
l-54 -65 6 40 c4 22 7 60 7 85 0 42 5 50 73 121 119 124 175 260 184 444 4 88
1 131 -16 215 -25 119 -111 382 -126 382 -5 1 -27 -30 -48 -68 -67 -119 -244
-477 -257 -518 -33 -104 38 -362 135 -492 23 -30 23 -33 10 -105 -26 -152 -44
-199 -114 -294 -112 -152 -136 -186 -222 -316 l-84 -127 -2 99 -3 98 42 48
c82 94 147 285 148 430 0 133 -50 305 -154 527 -45 97 -66 133 -73 124 -27
-35 -203 -510 -223 -602 -19 -85 6 -195 74 -328 44 -87 121 -198 137 -198 13
0 11 -130 -3 -228 -10 -74 -19 -96 -75 -195 -36 -62 -102 -188 -148 -280 -83
-166 -84 -167 -90 -130 -4 21 -13 63 -19 94 -13 56 -12 56 23 115 100 166 122
412 55 612 -14 42 -48 122 -75 177 -57 113 -170 305 -180 305 -15 0 -120 -390
-153 -571 -13 -70 -14 -97 -5 -140 26 -125 117 -283 227 -395 59 -61 59 -62
71 -144 18 -121 7 -213 -41 -329 -21 -53 -68 -179 -105 -281 -65 -183 -83
-223 -83 -185 0 11 -12 54 -26 95 l-27 76 26 65 c14 36 31 87 38 114 17 72 15
266 -5 355 -28 128 -120 299 -267 497 -43 59 -79 111 -79 115 0 4 -4 8 -9 8
-27 0 -109 -556 -98 -672 6 -68 48 -164 111 -252 48 -67 176 -198 218 -223 33
-20 66 -127 78 -251 7 -83 6 -94 -35 -247 -23 -88 -55 -224 -71 -302 -16 -79
-31 -143 -34 -143 -3 0 -14 21 -24 48 -11 26 -30 64 -44 86 l-24 38 17 67 c23
89 30 229 16 321 -33 211 -122 370 -361 640 -97 111 -100 113 -107 107 -20
-21 -40 -515 -25 -631 7 -51 21 -99 41 -140 55 -109 185 -244 328 -339 58 -38
65 -47 94 -117 18 -41 39 -113 49 -159 15 -74 15 -94 4 -165 -13 -80 -37 -305
-50 -463 l-6 -81 -27 49 c-14 27 -39 66 -56 86 l-29 37 -1 166 c-1 140 -5 176
-24 240 -33 110 -92 230 -155 313 -56 75 -288 313 -360 370 l-39 31 6 -214
c10 -323 35 -473 96 -568 70 -107 239 -247 384 -318 51 -25 64 -38 102 -100
24 -39 55 -110 69 -157 24 -77 26 -101 26 -252 0 -162 -1 -167 -21 -172 -12
-4 -40 -16 -63 -28 l-41 -22 -18 106 c-21 129 -51 216 -120 341 -43 80 -71
114 -177 220 -119 119 -376 328 -388 315 -8 -8 15 -198 44 -355 31 -171 66
-292 101 -355 67 -121 296 -288 478 -349 41 -14 60 -29 104 -84 30 -37 65 -92
78 -122 14 -30 33 -73 44 -96 10 -23 19 -51 19 -63 0 -20 -5 -21 -75 -21 l-75
0 0 -45 c0 -63 -19 -57 -55 17 -91 186 -245 333 -563 538 -127 81 -137 86
-140 66 -4 -30 58 -275 107 -424 77 -233 126 -307 269 -403 42 -28 79 -52 80
-54 2 -2 -6 -17 -18 -33 -40 -54 -23 -64 125 -78 39 -4 76 -11 83 -17 7 -6 43
-8 86 -4 l73 5 71 -71 c38 -40 85 -99 103 -132 18 -33 38 -67 44 -75 7 -8 30
-80 51 -160 29 -106 39 -165 39 -220 0 -70 1 -74 24 -80 21 -5 31 -25 71 -135
68 -189 127 -336 180 -450 25 -55 61 -133 80 -172 18 -40 38 -73 45 -73 7 0
20 9 30 20 10 11 26 22 36 25 11 4 19 10 19 15 0 4 -25 61 -56 125 -81 171
-270 604 -288 661 -4 15 1 24 25 38 27 16 32 16 42 3 18 -23 79 -57 102 -57
19 0 54 44 101 128 18 32 21 33 73 29 l54 -4 14 -54 c58 -231 142 -493 227
-711 25 -65 46 -120 46 -122 0 -2 -30 -14 -68 -26 -101 -34 -558 -202 -712
-263 l-135 -53 -3 -557 c-2 -522 -3 -557 -20 -557 -23 0 -247 -128 -347 -198
-43 -31 -98 -74 -121 -97 l-41 -40 -7 -184 c-3 -101 -6 -360 -6 -575 l-1 -391
-69 -49 c-219 -154 -451 -435 -609 -736 -95 -183 -104 -210 -96 -307 l7 -82
54 34 c199 127 496 239 731 274 104 16 345 14 446 -4 100 -17 227 -56 314 -96
l63 -28 0 304 0 303 66 7 c126 14 369 -1 479 -28 55 -14 108 -29 117 -32 17
-7 18 15 18 381 l0 389 198 72 c384 141 758 263 1100 358 l192 54 154 -123
c223 -179 412 -308 716 -491 111 -67 478 -248 645 -319 395 -167 904 -310
1335 -375 282 -42 421 -53 780 -58 462 -7 720 13 1129 88 922 168 1805 574
2544 1171 l98 79 94 -26 c183 -50 532 -157 765 -235 214 -72 576 -203 585
-212 2 -2 5 -175 7 -385 2 -210 5 -384 8 -387 3 -3 28 1 55 10 129 38 278 58
450 58 147 0 277 -13 293 -29 3 -2 5 -141 6 -309 l1 -304 40 23 c113 66 319
115 481 115 125 0 294 -30 449 -81 129 -42 367 -155 457 -217 l45 -31 7 82 c6
77 5 87 -24 157 -70 170 -209 399 -344 566 -79 98 -260 272 -345 332 l-61 43
0 -79 0 -79 43 -28 c92 -60 87 -46 87 -245 0 -97 -3 -179 -6 -183 -4 -3 -36
20 -72 51 l-65 57 7 715 c3 393 9 764 13 823 l6 108 -59 57 c-70 68 -210 163
-389 265 l-130 73 0 533 0 533 -179 79 c-169 75 -502 214 -609 254 -26 10 -46
23 -44 29 3 6 32 80 66 163 65 164 163 466 202 625 l24 98 60 0 60 0 20 -42
c28 -59 73 -118 89 -118 8 0 37 16 65 35 46 30 55 33 77 23 19 -9 24 -18 21
-32 -6 -27 -131 -347 -158 -404 -11 -24 -33 -76 -48 -115 -16 -40 -49 -116
-74 -169 -42 -91 -44 -98 -26 -103 10 -4 32 -17 48 -31 l29 -24 22 48 c112
235 168 369 247 588 54 148 70 184 85 184 16 0 18 8 17 57 -1 41 10 98 38 198
22 77 53 198 69 270 20 94 37 144 61 183 17 30 34 59 36 66 2 7 30 1 83 -17
77 -27 177 -37 188 -18 3 4 44 11 92 15 93 8 134 19 134 37 0 7 -33 44 -74 83
-41 40 -78 85 -84 104 l-11 32 88 45 c185 93 304 207 355 343 49 131 129 444
143 565 l6 49 -44 -27 c-75 -47 -210 -145 -299 -216 -198 -158 -320 -321 -389
-520 l-29 -84 -77 -3 c-70 -3 -76 -1 -72 15 3 10 8 59 12 108 10 160 10 159
65 189 63 34 110 79 110 104 0 11 -14 32 -31 46 l-31 27 26 37 c45 64 50 69
76 77 145 45 395 228 469 343 54 86 95 265 126 561 17 155 18 191 7 191 -10 0
-246 -200 -320 -273 -149 -145 -246 -300 -298 -473 -20 -68 -27 -119 -31 -214
l-5 -125 -48 -53 c-37 -41 -53 -52 -68 -48 -18 6 -19 22 -25 284 -6 269 -6
281 16 364 13 48 41 117 66 159 36 63 50 77 90 96 51 25 164 106 227 163 118
108 173 193 199 304 18 75 33 415 25 560 l-5 99 -141 -145 c-241 -248 -320
-368 -376 -573 -25 -93 -34 -262 -19 -349 12 -67 12 -68 -16 -104 -15 -21 -42
-63 -59 -95 l-31 -58 -7 83 c-7 82 -45 347 -69 483 -11 60 -10 82 4 160 16 81
47 181 67 211 4 7 36 34 72 60 134 99 242 219 300 334 41 81 50 171 38 385 -7
138 -34 395 -43 403 -5 6 -131 -144 -208 -248 -187 -252 -246 -418 -234 -665
4 -74 12 -131 27 -174 l22 -65 -36 -70 c-19 -39 -38 -84 -42 -100 -5 -23 -15
5 -50 144 -24 95 -63 234 -87 309 -41 133 -42 138 -36 236 8 133 31 210 72
243 111 89 249 275 286 382 25 76 26 132 5 282 -15 112 -79 432 -93 471 -6 17
-14 10 -57 -49 -54 -75 -144 -217 -191 -304 -130 -236 -148 -507 -49 -725 l32
-70 -22 -65 c-13 -36 -23 -74 -23 -86 -2 -52 -20 -21 -96 168 -45 112 -100
242 -122 289 -36 77 -41 95 -44 175 -7 193 -7 192 67 280 130 157 214 328 214
439 0 63 -35 210 -105 435 -63 207 -72 230 -83 230 -11 0 -97 -155 -161 -292
-81 -171 -103 -259 -103 -408 0 -175 39 -311 119 -418 24 -32 25 -37 14 -90
-6 -30 -11 -73 -11 -94 0 -21 -3 -38 -7 -38 -5 0 -37 55 -72 123 -36 67 -106
191 -157 274 -88 146 -93 157 -108 247 -25 149 -22 190 18 239 117 143 198
389 166 507 -20 77 -226 576 -247 600 -7 7 -20 -19 -67 -130 -99 -236 -143
-414 -132 -541 14 -167 69 -314 155 -411 l51 -56 0 -97 0 -97 -92 129 c-50 70
-134 182 -187 248 -53 66 -103 134 -112 151 -8 17 -28 84 -44 147 l-28 116 31
48 c75 117 130 316 118 427 -6 48 -21 87 -70 181 -90 170 -251 448 -263 452
-12 4 -77 -202 -103 -331 -11 -54 -23 -135 -26 -180 -14 -204 84 -439 235
-559 34 -27 37 -35 51 -122 l15 -92 -64 71 c-36 39 -139 145 -229 236 -90 91
-171 179 -179 194 -9 16 -33 72 -55 124 -37 90 -38 96 -24 126 55 120 78 216
78 341 0 138 4 131 -291 529 -111 150 -126 166 -133 146 -23 -64 -50 -259 -55
-400 -5 -151 -4 -157 24 -245 16 -50 48 -122 71 -161 43 -75 152 -185 214
-218 32 -17 38 -28 57 -92 12 -40 21 -76 21 -80 0 -5 -17 8 -37 27 -58 54
-196 166 -318 257 -60 46 -124 93 -141 107 -17 13 -59 69 -94 125 l-62 102 16
51 c53 172 41 382 -26 473 -13 17 -115 127 -228 244 -113 117 -208 217 -212
223 -14 22 -19 -3 -29 -143 -16 -230 6 -391 71 -520 68 -135 168 -235 295
-297 66 -31 72 -37 103 -98 18 -36 30 -65 26 -65 -3 0 -18 8 -32 19 -57 39
-332 200 -437 255 -76 40 -119 70 -140 96 -16 21 -52 63 -78 93 l-48 56 9 83
c10 96 1 216 -23 287 -29 89 -67 134 -191 229 -66 50 -180 140 -254 201 -74
61 -138 111 -142 111 -5 0 -8 -10 -8 -22z m-2166 -2908 c104 -20 273 -72 353
-108 l42 -18 -65 -32 c-81 -40 -152 -105 -189 -174 -32 -59 -30 -59 65 24 29
27 104 73 165 103 102 51 117 56 214 65 338 33 630 -30 779 -166 42 -38 45
-43 27 -49 -101 -35 -204 -116 -249 -196 -21 -37 -21 -37 54 24 113 89 290
151 510 178 236 28 460 -29 596 -153 98 -90 157 -201 184 -349 10 -51 8 -61
-20 -128 -68 -167 -174 -293 -294 -351 -65 -32 -76 -34 -205 -40 -127 -5 -133
-6 -96 -18 22 -7 68 -18 103 -24 l62 -13 0 -130 0 -130 -45 -18 c-24 -10 -57
-31 -72 -47 -27 -27 -30 -28 -78 -18 -82 17 -349 14 -432 -4 -87 -20 -168 -57
-231 -107 l-47 -37 -90 8 c-142 13 -134 10 -102 32 16 11 56 27 89 36 l60 16
-66 18 c-72 20 -113 46 -102 64 4 7 39 22 79 34 l72 22 -51 8 c-150 22 -135
56 41 93 44 9 81 18 84 21 2 2 -45 4 -105 4 -138 0 -158 11 -84 43 30 13 62
27 70 30 8 3 -39 3 -105 -1 -66 -4 -182 -7 -258 -7 -75 0 -137 -2 -137 -5 0
-3 23 -20 50 -39 71 -48 68 -53 -39 -77 l-56 -12 48 -1 c55 -1 117 -26 117
-47 0 -22 -38 -35 -118 -41 -86 -7 -86 -7 15 -23 77 -12 115 -31 98 -49 -6 -6
-46 -16 -90 -23 l-79 -12 89 -13 c139 -20 135 -37 -13 -63 l-73 -13 56 -30
c30 -17 55 -33 55 -36 0 -3 -15 -13 -32 -20 -18 -8 -68 -49 -112 -92 l-78 -77
-77 -7 c-166 -15 -323 -71 -435 -155 -56 -41 -127 -114 -147 -151 -12 -22 -13
-19 -24 47 -15 88 -36 128 -93 182 -33 30 -42 46 -35 53 17 17 117 38 216 45
48 4 90 10 92 14 2 4 -40 10 -95 14 -133 9 -354 42 -381 57 -19 10 -20 13 -7
20 22 12 182 36 343 51 77 7 129 14 115 16 -102 13 -451 79 -545 102 -241 61
-229 86 39 77 100 -4 210 -9 246 -11 l65 -5 -65 10 c-365 54 -493 80 -526 104
-18 13 -17 14 11 26 22 9 136 14 420 17 l390 5 -230 37 c-126 21 -270 45 -320
55 -281 52 -397 103 -277 121 61 9 411 -2 617 -20 88 -8 161 -13 163 -12 7 7
-164 57 -273 80 -158 33 -294 46 -477 46 -217 0 -434 36 -582 96 -33 13 -61
24 -63 24 -2 0 -3 -20 -3 -44 l0 -44 -40 10 -41 11 3 81 3 81 50 -2 50 -3 -50
21 c-27 11 -72 25 -99 30 -261 49 -309 314 -103 568 130 160 359 280 593 312
90 12 281 6 296 -9 5 -5 -5 -18 -21 -29 -35 -27 -121 -140 -121 -160 0 -10 8
-5 22 13 29 37 48 54 128 112 36 26 83 65 105 88 92 93 200 155 335 190 116
31 314 33 464 4z m-2389 -784 c37 -11 60 -13 90 -6 61 14 175 12 232 -5 l51
-15 7 -53 c19 -136 87 -230 208 -282 l67 -29 0 -57 0 -56 -81 -6 c-70 -6 -85
-4 -108 12 -14 10 -59 35 -99 56 -209 106 -427 111 -617 12 -79 -41 -81 -42
-170 -39 -106 4 -204 -10 -299 -43 -79 -27 -77 -28 -116 52 -44 88 -42 207 5
269 47 62 95 79 217 79 101 0 109 2 135 26 47 43 86 66 148 88 51 19 76 21
170 17 61 -2 133 -11 160 -20z m190 -461 c73 -19 187 -72 243 -112 39 -29 43
-30 104 -21 122 18 277 -12 370 -71 140 -89 210 -303 142 -439 -68 -137 -276
-252 -455 -252 -83 0 -109 -8 -109 -31 0 -31 45 -42 144 -35 l89 7 -5 -85 c-4
-69 -10 -96 -34 -142 -35 -69 -109 -133 -187 -162 -51 -20 -64 -20 -213 -11
-88 6 -245 7 -351 3 -164 -6 -202 -4 -265 11 -40 10 -84 23 -98 30 -36 18
-124 114 -148 161 -29 58 -52 153 -52 219 l0 56 31 -18 c48 -28 66 -57 72
-121 14 -134 82 -240 179 -282 49 -21 70 -23 293 -26 242 -3 255 1 72 26 -48
7 -89 16 -92 20 -8 13 53 30 153 42 92 12 101 26 18 27 -64 1 -166 22 -160 33
9 15 52 29 149 47 l90 18 -80 7 c-93 8 -151 22 -161 38 -17 26 53 58 181 83
57 11 49 12 -140 18 -110 4 -246 13 -302 21 -93 12 -107 17 -165 56 -217 147
-382 324 -406 435 -18 87 17 197 80 250 46 39 142 81 219 96 35 6 118 12 184
13 93 1 127 5 145 17 143 93 297 118 465 74z m-1256 -94 c58 -17 143 -52 159
-66 1 -1 -13 -28 -32 -59 -29 -49 -35 -54 -38 -34 -2 19 -8 23 -33 20 -27 -2
-32 2 -44 33 -15 43 -24 44 -53 5 -12 -16 -24 -30 -28 -30 -3 0 -16 18 -30 40
-14 22 -27 40 -31 40 -3 0 -14 -18 -24 -40 -20 -45 -20 -45 -55 -25 -38 22
-46 18 -58 -23 -11 -36 -14 -38 -47 -34 -33 4 -35 3 -35 -26 0 -51 23 -59 79
-28 92 50 202 53 310 10 l37 -14 0 -73 c0 -110 38 -180 171 -316 l104 -106 -3
-60 -3 -59 -75 -23 c-234 -72 -505 -99 -680 -69 -129 23 -238 76 -308 150
l-53 56 -62 -15 c-115 -27 -228 -15 -323 33 -111 57 -204 207 -212 342 -4 70
-2 78 22 107 33 40 82 56 168 57 l68 1 0 50 c1 74 38 111 142 142 40 12 109
17 278 19 124 1 248 7 275 13 85 17 329 7 414 -18z m6821 -311 c47 -12 121
-38 166 -60 67 -32 95 -54 159 -122 85 -89 89 -87 26 17 -23 37 -41 69 -41 72
0 13 349 -5 418 -21 135 -33 267 -99 356 -178 l56 -50 51 12 c72 17 159 8 213
-24 51 -30 84 -80 99 -151 9 -46 8 -56 -14 -99 -79 -159 -197 -203 -338 -125
l-57 31 -82 -41 c-174 -87 -314 -123 -399 -101 -71 17 -99 43 -124 111 l-22
61 -26 -34 c-86 -111 -158 -160 -253 -174 -51 -7 -57 -1 -32 34 11 16 25 22
50 22 63 0 114 39 152 115 29 60 45 140 40 201 -4 45 -10 61 -36 87 l-32 32 0
-43 c0 -52 -24 -112 -44 -112 -15 0 -20 12 -30 71 -6 34 -66 109 -88 109 -10
0 -10 2 2 -39 10 -36 4 -81 -11 -81 -5 0 -9 5 -9 12 0 13 -49 68 -61 68 -4 0
-9 -9 -12 -19 -8 -31 -60 -36 -113 -12 -154 73 -494 90 -494 26 0 -14 37 -20
197 -30 182 -11 323 -63 398 -147 95 -106 84 -227 -28 -313 -68 -51 -274 -133
-446 -175 -92 -23 -266 -37 -325 -26 l-38 7 46 43 c25 23 46 47 46 53 0 6 65
12 173 16 195 6 303 28 380 77 49 31 88 97 86 146 -1 33 -16 87 -18 63 -2 -25
-40 -69 -61 -69 -13 0 -23 14 -35 49 -8 26 -26 58 -39 70 l-24 22 5 -43 c3
-32 -1 -52 -17 -76 -26 -43 -43 -37 -52 18 -8 47 -29 77 -47 66 -6 -4 -11 -17
-11 -29 0 -13 -13 -38 -30 -57 -38 -45 -45 -36 -74 92 -7 29 -61 98 -77 98 -5
0 -6 -24 -3 -53 6 -50 4 -56 -22 -85 -16 -17 -39 -33 -52 -37 -20 -6 -26 2
-62 80 -39 84 -61 103 -68 59 -8 -43 -23 -36 -99 44 -53 56 -85 82 -100 82
-36 0 -27 -21 30 -72 78 -67 157 -232 157 -324 0 -21 -1 -21 -52 -8 -29 8 -88
14 -131 14 -79 0 -79 0 -73 25 l6 24 -24 -24 c-33 -33 -56 -32 -56 0 0 23 -22
75 -48 113 -5 8 -7 -8 -5 -40 5 -68 -20 -123 -56 -123 -21 0 -29 12 -61 93
-47 116 -61 132 -44 50 18 -83 17 -119 -2 -146 -17 -24 -59 -30 -67 -9 -3 7
-3 25 0 40 6 33 -35 122 -72 157 l-26 24 17 -39 c32 -77 16 -170 -29 -163 -17
2 -24 14 -33 53 -15 67 -34 102 -83 150 -43 41 -55 40 -21 -2 50 -64 64 -202
30 -304 -23 -67 -17 -94 25 -105 33 -8 31 -18 -6 -42 -32 -20 -32 -20 -90 0
-43 14 -64 28 -76 49 -20 33 -26 35 -43 14 -13 -16 -52 -19 -83 -6 -17 6 -17
8 3 26 56 50 70 157 34 245 l-19 45 -5 -77 c-7 -85 -23 -118 -38 -77 -33 83
-47 110 -68 130 -28 26 -28 28 -9 -35 20 -65 19 -99 -4 -127 -18 -22 -20 -22
-43 -7 -17 11 -29 33 -37 63 -13 52 -32 86 -70 128 -28 31 -75 62 -55 36 18
-23 34 -103 34 -172 0 -51 -4 -68 -19 -81 -27 -24 -37 -15 -55 49 -9 29 -32
75 -52 102 -47 62 -59 74 -50 48 15 -39 36 -179 30 -197 -12 -39 -46 -16 -85
57 -36 68 -77 113 -139 148 l-31 19 40 -54 c44 -57 71 -123 71 -171 0 -22 -4
-28 -16 -23 -9 3 -49 6 -90 6 -71 0 -75 1 -69 20 7 22 2 24 -25 10 -15 -8 -22
-6 -33 11 -14 20 -15 19 -25 -10 -8 -23 -17 -31 -36 -31 -21 0 -25 5 -28 38
l-4 37 -8 -30 c-5 -16 -14 -33 -20 -37 -5 -4 -81 -7 -168 -7 -236 -2 -567 -28
-702 -57 -27 -6 -28 -5 -22 22 29 113 148 252 274 317 218 115 487 115 667 2
27 -17 26 -15 -10 24 -36 39 -136 112 -167 124 -21 7 59 84 133 128 104 62
202 82 373 77 189 -7 258 -35 420 -172 36 -31 66 -54 66 -51 0 3 -19 34 -42
68 -48 70 -102 126 -159 164 -46 30 -43 37 30 77 90 48 190 68 346 68 190 0
297 -19 376 -68 76 -46 170 -121 228 -182 55 -58 46 -44 -55 83 -43 55 -104
124 -134 153 -43 43 -51 55 -40 63 51 32 176 38 291 14 77 -16 184 -69 369
-183 58 -36 116 -72 130 -80 49 -28 -146 149 -228 207 -45 33 -88 62 -95 65
-18 7 27 43 71 57 51 15 260 23 376 14 l97 -7 64 -62 c70 -66 73 -60 25 36
-31 64 -31 64 39 83 67 19 115 18 211 -5z m-4592 -326 l3 -41 127 1 c111 1
131 -2 162 -20 49 -28 65 -66 53 -119 l-10 -42 126 -5 c96 -4 139 -11 182 -27
74 -28 132 -71 166 -123 24 -36 28 -52 28 -113 0 -63 -3 -76 -27 -108 -37 -47
-76 -74 -146 -100 -48 -17 -83 -21 -212 -23 -85 -1 -173 -7 -195 -13 -150 -40
-458 35 -641 156 -52 35 -53 36 -37 59 9 14 19 23 22 22 3 -2 61 -31 127 -64
204 -104 373 -129 513 -75 62 23 116 71 137 120 8 18 14 35 14 37 0 2 -21 -12
-46 -31 -25 -19 -55 -35 -66 -35 -21 0 -21 5 -2 104 6 26 1 23 -56 -34 -90
-90 -117 -73 -85 51 8 34 13 64 10 67 -2 3 -28 -18 -57 -46 -60 -58 -108 -88
-131 -79 -18 7 -8 74 22 143 l20 45 -65 -55 c-72 -59 -104 -74 -104 -49 0 9
20 57 44 108 l43 92 -74 -53 c-82 -59 -120 -70 -109 -31 3 12 9 40 13 61 6 38
6 39 -21 32 -54 -13 -44 6 19 38 81 43 153 103 185 156 34 55 64 52 68 -6z
m-3323 -190 c47 -13 84 -16 181 -11 122 5 122 5 147 -22 19 -21 26 -40 30 -96
3 -38 8 -78 12 -87 5 -14 -2 -18 -40 -24 -99 -14 -402 12 -380 34 3 3 33 4 68
3 66 -2 134 12 107 22 -8 3 -52 16 -97 27 -45 12 -90 28 -100 37 -16 13 -14
14 23 9 50 -7 199 4 187 14 -4 3 -39 14 -78 24 -86 22 -180 70 -206 107 -29
41 -24 42 34 10 28 -16 79 -37 112 -47z m1460 -143 c4 -22 22 -72 41 -111 19
-39 34 -73 34 -76 0 -14 -68 -34 -118 -34 -82 0 -248 -17 -359 -36 -61 -10
-98 -12 -109 -6 -37 21 26 36 161 41 l130 4 -86 17 c-48 10 -113 26 -145 35
-56 17 -57 18 -31 26 16 4 99 14 185 21 l157 13 -145 6 c-80 4 -165 12 -190
19 l-45 13 145 23 c80 13 192 37 250 53 58 16 108 30 112 30 3 1 9 -17 13 -38z
m7610 -200 c232 -74 551 -209 722 -306 l75 -42 77 24 c88 29 154 26 201 -7 27
-19 48 -56 37 -66 -3 -3 -27 6 -53 20 -27 14 -60 26 -73 26 l-24 0 7 -93 7
-94 -66 -21 c-36 -12 -72 -22 -79 -22 -9 0 -16 -20 -21 -66 -17 -159 -107
-330 -273 -522 l-55 -62 -36 36 c-34 34 -117 83 -171 99 -19 6 -13 -3 26 -39
29 -25 77 -79 107 -119 l56 -72 -18 -70 c-63 -239 -193 -457 -420 -700 -41
-44 -86 -85 -101 -91 -33 -14 -80 -70 -80 -95 0 -12 18 -32 47 -52 25 -17 58
-42 72 -54 l26 -23 -33 -30 c-18 -16 -41 -30 -52 -30 -11 0 -49 23 -84 52 -63
50 -159 98 -224 113 -33 7 -37 12 -24 31 17 26 127 64 185 64 48 0 25 24 -31
34 -30 5 -52 14 -52 21 0 7 20 28 45 47 66 52 88 84 93 138 8 86 -22 78 -108
-26 -70 -84 -101 -108 -127 -100 -30 9 -44 45 -52 122 -11 113 -55 142 -68 45
l-6 -40 -46 40 c-107 95 -269 150 -446 151 -124 1 -202 -15 -299 -62 l-61 -29
-35 33 c-19 19 -53 43 -75 54 l-40 20 70 7 c38 4 117 5 175 2 93 -6 102 -5 80
7 -38 21 -129 50 -278 89 -130 35 -167 51 -156 68 7 12 65 26 151 39 123 17
354 -19 551 -87 41 -13 76 -23 78 -20 10 10 -120 87 -199 117 -91 36 -232 73
-343 91 -92 15 -105 28 -64 62 96 81 446 11 765 -152 115 -59 114 -58 86 -28
-70 77 -295 190 -471 237 -188 50 -306 122 -269 166 12 15 29 16 134 11 236
-12 475 -98 663 -239 37 -28 74 -55 82 -61 8 -6 -7 13 -35 42 -92 96 -297 205
-480 255 -144 40 -156 44 -192 66 -42 25 -44 57 -5 67 15 4 65 7 112 7 95 -1
206 -28 338 -81 92 -36 293 -135 332 -163 14 -9 36 -23 50 -29 18 -9 14 -2
-15 25 -87 79 -143 124 -210 167 -180 115 -333 169 -620 217 -141 24 -185 40
-185 69 0 48 124 65 477 66 160 0 283 3 273 7 -68 25 -248 41 -555 47 -327 8
-409 17 -410 46 0 20 75 46 166 57 114 14 371 -1 619 -38 91 -13 172 -24 180
-23 32 1 -68 30 -174 50 -177 33 -242 55 -279 97 -24 26 -15 30 79 42 149 19
533 -36 797 -115 43 -13 48 -13 37 0 -39 47 -262 124 -551 190 -112 26 -210
49 -218 51 -26 8 3 24 64 35 110 21 394 -7 689 -67 134 -27 139 -28 131 -14
-9 14 -166 62 -395 120 -278 71 -319 90 -228 104 56 9 379 -13 573 -40 91 -12
1 18 -205 68 l-215 53 115 8 c89 6 140 5 229 -8 165 -24 160 -13 -14 29 -46
11 -55 16 -39 21 12 4 43 17 70 30 64 31 82 30 189 -4z m-1956 -61 c42 -12 71
-37 64 -55 -13 -35 -110 -97 -703 -450 -381 -227 -557 -348 -652 -447 -48 -50
-49 -29 -1 42 36 54 34 53 -63 -40 -112 -108 -124 -106 -69 15 19 43 34 79 32
81 -1 2 -25 -25 -52 -59 -76 -93 -258 -289 -297 -319 -23 -18 -42 -24 -60 -21
-22 4 -27 13 -35 54 l-10 50 126 112 c455 406 832 695 1137 876 216 126 334
170 464 171 47 0 100 -4 119 -10z m-4197 -52 c109 -72 106 -70 83 -63 -11 4
-67 17 -124 30 -57 13 -105 26 -108 28 -5 6 59 47 73 47 6 0 40 -19 76 -42z
m-1251 7 c52 -8 125 -22 163 -31 58 -14 110 -16 330 -12 340 7 495 -5 707 -53
284 -65 471 -202 502 -366 4 -18 -7 -131 -23 -250 -16 -120 -41 -303 -55 -408
-24 -183 -26 -191 -54 -215 -255 -219 -916 -304 -1634 -208 -230 31 -577 30
-932 -1 -195 -17 -296 -22 -405 -18 -503 20 -855 202 -940 486 -38 128 -20
333 39 448 33 65 108 150 175 198 159 113 346 164 685 185 218 14 282 28 431
99 202 96 347 138 550 160 108 12 339 5 461 -14z m-1007 -33 l48 -19 -77 -42
c-43 -23 -80 -40 -82 -37 -3 2 3 32 13 65 13 48 20 60 33 56 9 -3 38 -13 65
-23z m4982 -42 c98 -12 235 -32 304 -46 130 -25 310 -72 323 -83 4 -4 -21 -27
-55 -51 -35 -24 -116 -83 -180 -132 l-117 -88 -153 20 c-84 10 -246 24 -359
31 -338 19 -723 -13 -943 -77 -90 -27 -175 -29 -199 -5 -15 15 20 25 193 56
140 25 182 37 169 48 -8 8 -154 -13 -283 -39 -158 -33 -179 -34 -184 -12 -2
12 10 20 50 32 47 13 273 53 400 71 50 7 70 21 43 31 -24 10 -214 -13 -373
-45 -78 -15 -145 -24 -148 -19 -27 43 125 80 409 100 124 9 167 15 167 25 0
27 -273 12 -500 -28 -287 -50 -528 -144 -708 -278 l-82 -61 6 93 6 92 46 43
c152 141 603 266 1158 322 266 26 310 28 590 24 161 -2 300 -10 420 -24z
m-1481 -3 c-6 -13 -54 -31 -63 -22 -2 1 12 12 30 23 36 23 41 23 33 -1z m-915
-72 c84 -22 301 -22 380 -1 45 12 70 13 141 4 l86 -11 -100 -34 c-127 -43
-261 -105 -311 -145 -30 -24 -40 -28 -47 -17 -5 8 -9 17 -9 20 0 3 -15 24 -32
47 -38 46 -115 109 -173 141 -22 12 -31 19 -20 17 11 -3 49 -12 85 -21z m3868
-45 c29 -11 67 -20 85 -20 55 0 59 -10 30 -70 -35 -74 -53 -144 -53 -212 0
-32 -3 -58 -7 -58 -5 0 -39 21 -78 45 -38 25 -122 71 -186 103 -65 31 -118 59
-118 62 0 3 61 42 137 87 75 45 137 82 137 82 0 1 24 -8 53 -19z m368 -38
c-13 -21 -45 -80 -70 -131 -26 -50 -54 -95 -63 -98 -10 -4 -25 4 -41 22 -32
38 -26 88 21 164 30 48 41 58 79 68 23 6 55 12 71 12 l27 1 -24 -38z m2868
-42 c41 -16 121 -41 178 -55 57 -15 108 -31 115 -37 7 -5 28 -34 48 -64 l36
-53 5 -198 c2 -109 6 -222 9 -250 3 -50 2 -53 -19 -53 -22 0 -24 5 -30 78 -16
182 -44 263 -119 343 -61 64 -121 110 -217 168 l-85 51 0 50 c0 27 1 50 2 50
1 0 36 -13 77 -30z m-3457 -206 c124 -50 395 -220 466 -292 36 -37 38 -42 44
-127 l6 -89 -55 64 c-70 84 -167 165 -297 251 -139 93 -181 102 -181 39 0 -26
-5 -33 -31 -42 -22 -8 -29 -16 -27 -31 3 -21 43 -45 169 -102 92 -42 238 -195
310 -323 24 -42 24 -43 5 -57 -28 -21 -32 -19 -47 18 -18 43 -167 191 -254
251 -91 63 -288 182 -392 236 -46 24 -83 44 -83 46 0 2 15 1 32 -3 l33 -6 -18
26 -17 26 35 -6 c34 -5 35 -5 35 27 0 30 2 32 30 28 24 -4 30 -1 30 15 0 17 5
18 41 12 41 -7 42 -7 37 20 -6 28 -1 29 46 10 15 -7 17 -5 11 13 -8 28 -7 27
72 -4z m-1102 -33 l70 -6 -83 -67 -84 -68 -231 0 c-211 0 -438 -18 -456 -35
-9 -10 19 -23 63 -29 23 -3 124 -13 226 -22 102 -9 202 -19 223 -23 l39 -6
-162 -145 c-164 -147 -183 -161 -233 -177 -17 -5 -37 -22 -49 -44 -19 -34 -19
-37 -3 -92 15 -51 19 -57 43 -57 42 0 93 -18 117 -40 20 -19 42 -22 186 -31
167 -11 520 -5 661 11 86 10 139 33 183 80 l30 32 -60 -8 c-33 -4 -118 -8
-190 -8 -148 0 -221 17 -256 62 -25 32 -22 48 22 163 25 65 43 94 81 131 57
55 76 58 157 25 45 -18 56 -28 65 -57 15 -47 49 -61 165 -70 143 -10 198 -47
209 -141 7 -52 8 -54 47 -65 50 -15 307 -18 358 -3 22 6 37 16 37 25 0 21
-107 126 -195 192 -96 72 -305 173 -450 217 -66 20 -128 40 -138 44 -14 5 -5
15 47 49 35 23 72 42 81 42 43 0 298 -115 450 -203 159 -91 316 -223 358 -299
27 -51 23 -102 -10 -128 -101 -80 -449 -153 -958 -201 -126 -12 -233 -27 -237
-32 -9 -15 -270 -21 -414 -9 -95 8 -128 14 -150 30 -22 15 -52 22 -129 26
-144 9 -157 14 -173 63 -7 22 -26 53 -43 69 -26 25 -40 29 -112 35 -45 4 -94
12 -109 19 -29 14 -59 65 -51 87 10 25 95 60 213 88 127 29 197 52 205 66 8
13 -39 29 -84 29 -58 0 -100 18 -107 47 -9 36 2 102 21 123 23 25 15 53 -16
64 -22 8 -31 5 -55 -19 -36 -34 -172 -124 -241 -159 -92 -46 -115 -40 -243 64
-101 81 -168 114 -220 107 -76 -10 -171 -99 -320 -300 -39 -54 -78 -101 -85
-104 -24 -8 -122 17 -184 48 -64 32 -141 107 -141 137 0 64 165 168 525 332
28 12 110 43 184 67 169 57 187 55 301 -27 128 -93 158 -92 398 4 151 61 255
89 367 99 68 6 466 5 540 -2z m4223 -138 c16 -141 33 -346 30 -347 -2 -1 -22
-19 -46 -41 -42 -39 -42 -39 -57 -18 -29 41 -65 38 -160 -13 -47 -25 -88 -45
-90 -42 -2 2 34 54 79 116 94 125 164 258 198 375 12 42 25 77 28 77 4 0 12
-48 18 -107z m296 -293 c30 -19 55 -37 55 -40 1 -6 -80 -40 -94 -40 -6 1 -19
15 -30 33 -15 23 -29 33 -53 35 -31 3 -32 5 -32 46 0 24 -3 58 -6 75 l-7 32
56 -53 c31 -29 81 -69 111 -88z m-3075 53 c26 -27 69 -81 98 -122 45 -65 50
-77 40 -98 -5 -12 -13 -23 -16 -23 -3 0 -19 21 -36 47 -16 26 -58 87 -92 135
-35 48 -63 92 -63 98 0 22 25 8 69 -37z m-8404 -107 c52 -24 109 -80 126 -123
20 -52 -17 -90 -76 -79 -30 6 -33 10 -38 52 -6 60 -17 70 -55 50 -40 -21 -38
-21 -51 15 -15 44 -14 69 6 91 21 23 28 23 88 -6z m11912 -18 c-3 -8 -6 -5 -6
6 -1 11 2 17 5 13 3 -3 4 -12 1 -19z m-7197 -125 c235 -143 541 -268 839 -343
307 -77 553 -105 936 -104 306 0 400 6 725 48 102 13 246 29 320 36 196 16
459 56 598 90 119 29 243 77 256 99 28 45 35 -48 10 -124 -37 -108 -102 -186
-234 -283 -142 -104 -200 -175 -200 -244 0 -44 16 -39 -235 -68 l-170 -19 -20
27 c-96 129 -309 239 -443 226 -31 -2 -252 -18 -490 -35 -238 -16 -490 -34
-559 -39 -81 -6 -184 -6 -286 0 -213 13 -222 22 -38 40 57 5 127 10 157 10 30
0 54 4 54 8 0 4 -39 14 -87 21 -86 13 -296 54 -340 67 -37 10 -27 22 25 28 86
11 303 26 391 27 99 1 92 4 -129 39 -147 24 -422 91 -566 139 -188 62 -431
167 -563 245 -35 20 -66 35 -68 32 -5 -5 80 -178 145 -296 69 -125 157 -246
248 -337 71 -72 86 -93 70 -93 -97 0 -311 268 -468 588 l-80 163 7 82 c4 45 9
85 12 89 2 5 30 -11 61 -36 31 -24 86 -61 122 -83z m6894 121 c24 -9 19 -40
-13 -76 l-28 -32 -42 33 c-22 18 -41 36 -41 41 0 8 73 38 97 39 6 1 18 -2 27
-5z m-354 -83 c0 -38 -3 -83 -6 -100 -6 -29 -9 -31 -48 -31 -23 0 -47 5 -54
12 -16 16 -15 63 2 97 16 30 80 91 96 91 6 0 10 -31 10 -69z m-10960 26 c53
-28 80 -75 80 -139 0 -43 -3 -48 -26 -54 -57 -14 -120 11 -146 59 -13 24 -30
136 -23 147 11 17 71 11 115 -13z m10793 -60 c-2 -68 -32 -138 -66 -155 -24
-12 -44 -15 -99 -13 l-38 1 0 56 c0 40 6 67 21 91 27 43 102 83 149 80 l35 -2
-2 -58z m688 42 l58 -21 -14 -29 c-30 -57 -82 -73 -150 -45 -42 18 -43 29 -10
79 30 43 38 44 116 16z m-11943 -16 c-3 -29 -32 -41 -66 -28 -13 5 -11 10 13
30 40 33 57 32 53 -2z m-438 -107 c0 -42 -5 -67 -14 -75 -11 -9 -15 -4 -20 26
-3 21 -6 55 -6 76 0 30 4 37 20 37 18 0 20 -7 20 -64z m11436 40 c7 -31 -11
-98 -36 -128 l-19 -23 -1 22 c0 21 16 113 25 141 7 20 24 14 31 -12z m-11526
-46 c0 -68 -4 -70 -61 -38 -47 26 -47 44 0 75 53 36 61 31 61 -37z m12591 13
c9 -24 3 -133 -7 -133 -21 0 -75 34 -97 60 -33 38 -26 52 38 81 52 24 54 24
66 -8z m83 2 c-4 -8 -8 -15 -10 -15 -2 0 -4 7 -4 15 0 8 4 15 10 15 5 0 7 -7
4 -15z m86 -46 c8 -14 3 -22 -24 -38 -46 -29 -58 -27 -46 4 6 14 15 37 20 51
9 22 13 24 26 13 8 -7 19 -20 24 -30z m-12446 15 c12 -5 16 -20 16 -64 0 -71
-12 -83 -103 -107 -61 -16 -68 -16 -83 -2 -14 14 -14 20 -1 50 35 84 118 144
171 123z m5001 -284 c96 -190 222 -348 320 -399 28 -15 34 -21 20 -22 -11 0
-185 -10 -387 -22 -203 -12 -368 -22 -368 -21 0 1 20 39 44 85 25 46 56 117
71 156 28 79 64 232 65 274 0 20 14 39 55 74 43 36 55 53 55 75 0 68 13 62 45
-21 17 -46 53 -127 80 -179z m-4587 180 c0 -32 -1 -33 -8 -10 -4 14 -8 39 -8
55 -1 25 1 27 8 10 5 -11 8 -36 8 -55z m11783 -37 c12 -26 18 -50 14 -61 -6
-13 -10 -9 -21 21 -7 21 -27 58 -44 83 -16 25 -30 48 -30 51 0 17 62 -56 81
-94z m-547 -58 c6 -15 2 -13 -18 8 -27 30 -30 44 -19 98 6 33 7 32 18 -26 7
-33 15 -69 19 -80z m-10986 94 c6 -51 -143 -179 -209 -179 -31 0 -41 25 -29
69 22 84 100 142 185 138 46 -2 50 -4 53 -28z m-970 -49 l2 -35 -16 30 c-9 17
-26 41 -38 54 l-21 25 35 -20 c28 -16 36 -27 38 -54z m11797 40 c75 -36 114
-87 118 -158 2 -35 0 -37 -31 -40 -19 -2 -51 6 -76 18 -58 28 -146 121 -146
154 0 47 65 60 135 26z m-10620 -54 c20 -30 12 -48 -46 -100 -54 -49 -113 -76
-169 -76 -83 0 -93 45 -28 116 57 62 100 83 170 84 50 0 60 -3 73 -24z m10453
-22 c63 -31 122 -97 122 -135 0 -34 -32 -59 -75 -59 -44 0 -127 42 -179 90
-58 53 -65 75 -35 106 31 33 98 33 167 -2z m-11485 -36 c54 3 67 0 67 -12 0
-8 -4 -17 -10 -21 -5 -3 -19 -33 -31 -65 -20 -57 -24 -60 -54 -60 -29 0 -33 4
-38 33 -10 58 -17 173 -9 147 8 -24 11 -25 75 -22z m4857 -20 c-1 -75 -52
-177 -72 -145 -5 8 -16 2 -32 -18 -21 -26 -25 -28 -31 -12 -9 23 -22 22 -30
-4 -6 -19 -8 -19 -25 -4 -16 15 -19 14 -38 -12 -20 -27 -20 -28 -41 -9 -22 20
-23 20 -58 -26 -18 -24 -22 -26 -33 -13 -10 13 -14 12 -29 -7 -17 -20 -19 -20
-43 -4 -25 16 -26 16 -46 -9 l-21 -26 -17 25 c-19 30 -34 34 -34 9 0 -35 -61
-123 -112 -164 l-52 -41 40 7 c137 24 252 51 341 80 103 34 236 96 248 115 3
5 10 10 16 10 25 0 -80 -207 -128 -251 -27 -26 -34 -27 -213 -39 -302 -19
-361 -26 -427 -53 -148 -60 -270 -188 -323 -339 l-18 -53 -264 -5 c-262 -5
-263 -5 -315 -33 -58 -30 -100 -78 -109 -125 -5 -26 -11 -32 -33 -32 -87 0
-200 81 -246 174 l-26 54 -112 7 c-294 18 -461 56 -643 145 -208 103 -336 245
-404 449 -27 80 -50 206 -50 271 l0 28 78 -21 78 -21 0 -85 c3 -292 186 -504
505 -585 116 -30 258 -46 376 -45 82 1 85 2 38 10 -95 16 -195 40 -200 49 -3
5 4 12 17 15 81 18 173 35 198 35 16 0 31 3 33 8 3 4 -25 6 -61 4 -98 -5 -310
14 -328 29 -22 18 -13 52 18 66 15 8 87 16 170 19 78 4 177 12 218 18 l75 12
-65 8 c-361 41 -381 44 -387 63 -6 16 111 40 258 55 132 13 131 25 -1 27 -148
2 -362 35 -382 58 -33 40 68 59 357 69 110 3 209 10 220 15 15 6 10 8 -21 8
-99 2 -441 75 -467 100 -4 4 98 16 225 27 299 24 684 25 843 2 210 -32 383
-41 686 -35 310 5 414 16 604 63 98 24 251 78 270 95 16 15 25 10 25 -13z
m7566 -40 c-13 -120 -18 -138 -35 -138 -13 0 -16 14 -17 85 -1 83 -1 85 22 85
15 0 24 6 24 15 0 8 3 15 6 15 4 0 4 -28 0 -62z m-11269 20 c41 -39 25 -100
-32 -124 -35 -14 -101 -19 -129 -8 -27 10 -19 60 16 100 51 58 105 70 145 32z
m10160 -27 c43 -31 67 -75 61 -113 -3 -21 -9 -23 -62 -26 -60 -3 -106 9 -126
33 -8 10 -3 26 20 64 16 29 30 56 30 61 0 19 38 10 77 -19z m586 -47 c16 -19
26 -38 23 -41 -11 -11 -79 11 -89 29 -8 12 -7 21 2 32 20 24 33 20 64 -20z
m-11223 -73 c35 -25 32 -52 -7 -68 -31 -12 -34 -11 -68 18 -35 31 -45 63 -22
73 20 9 70 -3 97 -23z m11351 -48 c45 -37 66 -60 59 -67 -5 -5 -36 -12 -67
-14 -48 -3 -63 0 -85 18 -30 23 -35 48 -17 83 11 19 28 36 37 37 2 0 35 -26
73 -57z m-243 23 c5 -24 -55 -86 -83 -86 -28 0 -65 27 -65 48 0 9 15 27 33 40
40 29 110 28 115 -2z m-11788 -57 c0 -41 -3 -49 -19 -49 -14 0 -20 10 -25 38
-10 64 -9 70 19 64 23 -4 25 -9 25 -53z m9235 21 c35 -18 74 -43 86 -56 l22
-24 -29 -42 c-44 -63 -54 -92 -54 -156 0 -39 8 -73 24 -109 30 -64 26 -68 -79
-82 -44 -6 -94 -15 -112 -20 l-32 -9 6 47 c6 51 -8 88 -56 149 -31 39 -66 50
-188 58 l-93 7 0 36 c1 76 59 155 150 201 62 31 108 40 203 36 76 -3 97 -8
152 -36z m-9345 -14 l0 -44 -42 9 c-50 12 -58 16 -58 34 0 20 40 45 72 45 26
0 28 -3 28 -44z m1368 35 c8 -4 12 -19 10 -32 -2 -19 -9 -24 -33 -24 -24 0
-31 5 -33 24 -4 23 11 41 33 41 6 0 16 -4 23 -9z m11142 -25 c0 -51 -14 -106
-28 -106 -10 0 -13 7 -8 23 3 12 6 39 6 60 0 26 4 37 15 37 8 0 15 -6 15 -14z
m-1245 -31 c0 -27 -4 -30 -32 -33 -37 -4 -41 7 -17 44 23 33 49 28 49 -11z
m1378 24 c54 -29 48 -55 -15 -74 -28 -8 -53 -15 -55 -15 -6 0 -3 68 3 84 7 19
36 21 67 5z m-2629 -14 c141 -30 269 -112 320 -204 24 -46 28 -61 24 -112 -5
-72 -31 -111 -79 -120 -19 -4 -63 -12 -98 -19 -80 -14 -157 -48 -203 -89 -25
-22 -46 -31 -70 -31 -69 0 -145 21 -233 65 -49 25 -97 45 -107 45 -28 0 -103
75 -127 125 -66 141 32 283 232 335 89 23 244 26 341 5z m-9171 -47 c11 -17
-14 -88 -38 -108 -18 -15 -163 -30 -205 -21 -88 18 -16 117 103 141 65 13 128
8 140 -12z m-940 1 c46 -25 48 -53 6 -74 -17 -9 -32 -15 -33 -13 -4 5 -36 88
-36 93 0 9 41 5 63 -6z m12037 -40 c55 -30 91 -88 71 -113 -16 -20 -138 -22
-207 -5 -39 10 -49 18 -66 54 -14 29 -19 51 -14 70 l7 27 82 -4 c64 -3 93 -10
127 -29z m770 -2 c0 -30 -43 -72 -65 -63 -25 9 -15 58 15 73 37 19 50 16 50
-10z m-489 3 c23 -13 62 -87 56 -105 -3 -7 -14 -14 -24 -17 -22 -6 -121 18
-140 33 -13 12 -18 80 -6 92 10 11 92 8 114 -3z m-11079 -17 c22 -20 23 -54 3
-92 -18 -35 -22 -37 -146 -57 -115 -18 -129 -13 -129 44 0 48 34 100 73 111
57 16 178 13 199 -6z m-1020 -43 c1 -22 2 -50 2 -62 1 -12 -4 -23 -11 -25 -13
-5 -29 98 -18 116 13 22 25 10 27 -29z m11466 33 c66 -7 107 -44 117 -102 11
-64 1 -81 -48 -81 -47 0 -148 17 -190 33 -39 14 -59 48 -55 94 5 59 46 72 176
56z m1287 -18 c0 -23 -60 -43 -135 -44 -39 -1 -42 1 -30 13 19 18 118 54 145
52 13 -1 20 -8 20 -21z m-4989 -10 c106 -40 162 -75 221 -139 64 -69 108 -155
124 -240 15 -82 -2 -230 -34 -300 -56 -121 -169 -253 -253 -295 -55 -28 -112
-35 -729 -91 -762 -69 -1096 -100 -1195 -110 -52 -6 -252 -26 -445 -46 -437
-43 -807 -89 -939 -115 -83 -17 -125 -20 -236 -16 -146 5 -218 20 -317 67 -91
42 -195 146 -217 218 -7 20 -4 22 32 22 32 0 41 -5 53 -26 24 -45 120 -123
179 -145 253 -97 510 119 510 430 0 228 -118 398 -311 447 -70 18 -123 13
-209 -18 -66 -25 -164 -119 -199 -191 -18 -37 -28 -47 -47 -47 l-24 0 19 50
c45 118 142 224 256 281 76 37 88 39 605 74 206 14 467 32 580 40 113 8 689
49 1280 90 591 41 1089 76 1105 78 82 10 128 6 191 -18z m4526 0 c25 -17 41
-38 49 -64 17 -56 8 -73 -30 -60 -47 16 -81 63 -81 110 0 46 11 49 62 14z
m-10999 -32 c39 -20 56 -41 57 -70 0 -26 -1 -26 -86 -23 -34 1 -80 -4 -102
-11 -35 -10 -45 -10 -66 4 -33 22 -43 55 -22 76 41 40 162 54 219 24z m9939
-27 c42 -20 51 -37 38 -70 -15 -40 -44 -50 -111 -37 -32 7 -81 9 -108 5 -78
-10 -101 24 -52 80 41 48 155 59 233 22z m-11422 -10 c0 -13 -6 -29 -14 -35
-11 -9 -15 -7 -20 11 -10 38 -7 48 14 48 14 0 20 -7 20 -24z m13025 -11 c19
-20 35 -45 35 -57 0 -20 -4 -21 -66 -15 -81 8 -114 27 -114 66 0 37 5 41 61
41 42 0 53 -5 84 -35z m-12440 10 c22 -8 54 -14 71 -15 l31 0 12 -107 c17
-147 7 -171 -81 -205 -49 -19 -70 -34 -97 -68 -23 -31 -48 -50 -80 -62 -44
-17 -66 -33 -99 -73 -33 -39 -46 -11 -107 234 -26 102 -26 106 -9 143 24 54
143 127 244 149 41 9 75 17 75 18 0 0 18 -6 40 -14z m295 -13 c0 -10 6 -26 14
-37 12 -17 15 -90 5 -99 -2 -2 -20 -6 -40 -9 l-36 -5 -12 70 c-13 76 -10 84
29 91 14 2 28 5 33 6 4 0 7 -7 7 -17z m11355 -7 c28 -9 75 -16 105 -17 74 -2
187 -54 182 -83 -8 -45 -93 -383 -106 -420 -8 -21 -19 -41 -25 -43 -6 -2 -25
12 -43 31 -33 35 -64 55 -104 66 -12 3 -37 26 -56 51 -26 34 -49 51 -98 72
-89 36 -96 56 -78 203 9 75 18 110 28 115 8 4 29 14 45 22 39 21 88 22 150 3z
m382 -32 c-3 -10 -5 -2 -5 17 0 19 2 27 5 18 2 -10 2 -26 0 -35z m199 6 c40
-27 65 -71 50 -86 -7 -7 -80 20 -124 47 -39 24 -49 45 -31 66 16 20 49 12 105
-27z m-13116 16 l25 -14 -32 -1 c-23 0 -33 5 -33 15 0 18 8 18 40 0z m12203
-3 c8 -4 6 -32 -9 -134 l-6 -38 -57 0 -57 0 4 37 c3 21 15 51 28 68 12 16 26
42 29 57 6 24 11 27 34 22 14 -4 30 -9 34 -12z m-11693 -51 c0 -30 -17 -34
-22 -6 -4 17 -1 25 8 25 8 0 14 -9 14 -19z m-76 -73 c9 -46 16 -85 16 -88 0
-3 -36 29 -79 70 l-80 75 27 12 c15 7 43 12 63 13 l36 0 17 -82z m1076 56 c30
-31 35 -69 12 -92 -25 -25 -119 -39 -171 -26 -46 12 -79 63 -65 103 8 22 17
27 59 32 81 11 144 4 165 -17z m7892 2 c29 -19 58 -81 58 -125 0 -42 -55 -86
-122 -100 -29 -6 -127 -22 -218 -36 -91 -15 -228 -36 -305 -49 l-140 -22 -11
88 c-6 48 -19 105 -28 128 -9 22 -16 46 -16 53 0 9 84 22 308 46 169 18 309
35 312 38 11 11 138 -5 162 -21z m-7427 -11 c14 -13 25 -34 25 -46 0 -33 -81
-106 -125 -115 -111 -20 -124 89 -19 156 58 36 87 38 119 5z m9461 -11 c19 -9
48 -32 64 -51 25 -28 30 -42 28 -71 -6 -76 -91 -82 -172 -11 -54 48 -61 85
-21 124 28 29 54 31 101 9z m553 10 c17 -4 36 -15 42 -26 16 -29 -7 -85 -41
-103 -35 -18 -131 -19 -180 -2 -31 11 -35 17 -38 49 -3 29 2 43 22 63 22 22
34 25 94 25 38 0 84 -3 101 -6z m-635 -203 c38 -35 108 -39 165 -9 l43 23 37
-36 c26 -26 52 -40 91 -49 44 -11 62 -22 94 -57 44 -50 83 -73 124 -73 23 0
35 -9 56 -40 31 -47 79 -80 117 -80 l26 0 -14 -62 c-31 -134 -94 -350 -149
-508 -61 -176 -129 -349 -142 -362 -5 -5 -53 8 -108 28 -319 117 -839 286
-1092 355 -144 39 -137 18 -64 194 l51 120 123 -3 c184 -6 304 29 398 114 68
61 100 162 78 244 -6 21 -3 28 20 38 33 15 82 82 82 112 0 26 -15 55 -52 100
-34 42 -35 56 -6 87 l21 23 38 -68 c20 -37 49 -78 63 -91z m-9640 107 c12 -33
-8 -60 -67 -90 -36 -18 -40 -18 -63 -3 -33 21 -30 55 8 94 27 27 37 32 72 29
34 -3 42 -7 50 -30z m463 -44 c125 -103 247 -173 365 -210 l58 -18 26 -85 c55
-184 129 -384 188 -514 25 -55 32 -79 23 -82 -6 -2 -66 -18 -132 -34 -175 -44
-620 -172 -840 -242 -104 -34 -226 -72 -270 -86 -44 -14 -83 -27 -86 -29 -26
-14 -299 823 -299 915 0 14 10 22 32 27 46 10 75 31 107 78 24 35 35 41 67 44
47 3 102 38 134 85 18 26 34 37 60 42 19 3 59 17 88 31 45 22 57 24 84 15 47
-17 119 -13 150 7 14 9 46 38 70 65 61 65 86 64 175 -9z m9523 41 c16 -9 36
-29 45 -45 29 -57 -20 -109 -77 -80 -65 34 -98 96 -66 128 17 17 63 15 98 -3z
m-10432 -15 c71 -43 16 -94 -114 -106 -85 -8 -114 3 -114 45 0 33 23 56 70 69
59 17 122 14 158 -8z m10979 -36 c21 -16 28 -30 28 -55 0 -51 -37 -65 -132
-51 -41 7 -87 19 -103 27 -39 20 -40 56 -2 85 23 19 37 21 104 18 59 -2 83 -8
105 -24z m-10744 -46 c23 -27 22 -49 -5 -84 -32 -41 -49 -53 -77 -54 -77 -1
-83 129 -7 160 29 13 68 3 89 -22z m8402 6 c134 -32 263 -122 300 -210 25 -58
16 -142 -19 -188 -33 -44 -91 -82 -166 -109 -73 -28 -247 -29 -334 -3 -186 55
-306 169 -306 290 0 179 253 285 525 220z m943 0 c165 -37 295 -158 296 -274
0 -93 -69 -169 -202 -221 -78 -32 -287 -34 -372 -5 -124 42 -215 109 -255 186
-42 81 -10 184 78 250 109 83 271 106 455 64z m1077 -27 c18 -15 28 -36 32
-64 5 -35 2 -45 -20 -67 -36 -36 -63 -33 -108 13 -44 43 -52 90 -22 123 23 26
85 24 118 -5z m-10897 -57 c31 -19 40 -43 24 -66 -11 -18 -84 -25 -122 -11
-43 15 -49 39 -16 72 30 30 69 32 114 5z m251 6 c7 -8 15 -39 18 -68 4 -44 2
-57 -17 -80 -25 -33 -67 -37 -106 -11 -31 20 -27 45 17 115 38 59 65 72 88 44z
m8070 -43 c-11 -22 -19 -58 -19 -89 0 -44 -3 -52 -21 -57 -27 -7 -125 10 -161
29 -28 14 -78 73 -78 91 0 6 35 16 78 22 42 7 102 18 132 25 90 22 91 22 69
-21z m3046 6 c19 -17 35 -37 35 -44 0 -26 -43 -45 -100 -45 -63 0 -80 11 -80
52 0 24 7 32 43 48 56 26 60 25 102 -11z m-290 -10 c27 -33 65 -101 65 -118 0
-14 -64 -51 -89 -51 -12 0 -33 11 -46 25 -21 20 -25 34 -25 80 0 31 5 65 10
76 16 29 54 24 85 -12z m-1854 11 c11 0 17 -4 14 -10 -10 -16 -41 -12 -56 7
-12 15 -12 16 4 10 10 -4 28 -7 38 -7z m-1264 -64 c19 -55 58 -103 103 -126
55 -28 166 -52 220 -48 43 3 48 0 85 -41 50 -55 133 -117 193 -144 150 -66
396 -63 532 8 50 26 130 110 136 145 8 38 21 47 29 21 8 -27 96 -105 156 -139
27 -15 49 -34 48 -42 0 -8 -26 -73 -58 -145 -40 -90 -62 -129 -72 -127 -8 2
-113 28 -234 57 -458 111 -947 206 -1370 265 -82 11 -162 23 -177 26 l-26 5
43 85 c24 47 49 110 56 140 14 61 -6 52 184 84 61 10 116 17 124 16 8 0 20
-19 28 -40z m-8083 -28 c9 -12 16 -30 16 -39 0 -24 -77 -48 -172 -56 -67 -5
-78 -4 -78 10 0 23 53 63 107 80 98 32 108 32 127 5z m1941 -32 c50 -9 137
-20 194 -26 58 -5 105 -11 106 -13 66 -105 138 -159 243 -185 39 -9 72 -21 72
-27 1 -64 55 -141 120 -170 l41 -19 -238 -52 c-131 -28 -275 -61 -320 -73 -45
-12 -90 -21 -101 -21 -15 0 -30 26 -71 121 -55 129 -154 402 -166 457 -6 30
-5 33 11 28 11 -3 60 -12 109 -20z m9678 4 c79 -25 117 -53 117 -87 l0 -26
-74 6 c-90 8 -180 36 -184 58 -4 21 36 69 58 69 10 0 47 -9 83 -20z m-11431
-17 c10 -9 18 -26 18 -38 0 -33 -38 -77 -64 -73 -17 2 -22 11 -24 49 -4 68 30
98 70 62z m11188 -28 c19 -23 23 -87 7 -110 -13 -17 -18 -18 -41 -7 -14 6 -34
27 -43 46 -15 32 -15 37 1 60 18 29 56 35 76 11z m-7691 -18 c46 -23 66 -63
65 -130 -1 -76 -22 -119 -72 -151 -68 -44 -152 -51 -561 -49 -360 3 -376 4
-419 24 -58 28 -82 69 -82 137 0 88 36 142 115 170 46 16 923 16 954 -1z
m-3675 -70 c13 -21 -23 -110 -46 -115 -21 -4 -41 33 -34 62 8 31 46 78 59 73
6 -2 15 -11 21 -20z m-156 -9 c24 -24 13 -48 -33 -70 -24 -12 -47 -19 -50 -16
-3 3 -8 22 -12 42 -5 31 -2 37 18 45 34 14 63 13 77 -1z m11683 -11 c25 -19
51 -76 44 -98 -7 -21 -41 -43 -54 -35 -5 3 -19 27 -31 53 -17 37 -20 51 -11
70 12 25 28 29 52 10z m192 -19 c14 -11 15 -18 5 -50 -13 -43 -27 -47 -74 -17
-37 22 -40 30 -24 60 12 22 66 26 93 7z m-3986 -238 c781 -107 1584 -281 2268
-493 l110 -35 3 -1151 c1 -633 -1 -1151 -5 -1151 -4 0 -95 27 -202 59 -713
216 -1339 360 -2046 471 -525 82 -925 124 -1520 162 -269 17 -1276 17 -1535 0
-666 -44 -1158 -103 -1698 -203 -277 -51 -683 -141 -882 -195 -511 -140 -854
-251 -1296 -421 -17 -6 -18 217 -7 1497 l6 816 91 28 c395 121 976 274 1366
360 338 74 816 166 864 166 16 0 34 -18 64 -65 47 -71 128 -136 223 -178 144
-64 364 -83 544 -48 290 55 783 107 2520 266 813 75 795 72 862 125 14 11 32
20 39 20 7 0 111 -13 231 -30z m2584 -595 c74 -25 136 -45 138 -45 5 0 -9
-2293 -14 -2298 -2 -2 -67 17 -144 43 l-141 47 0 1149 c0 954 2 1149 13 1149
8 0 74 -20 148 -45z m-9431 -653 c0 -324 -3 -846 -7 -1159 l-6 -571 -131 -55
-131 -55 -3 972 c-2 534 0 1061 3 1172 l7 201 127 41 c69 22 129 40 134 41 4
1 7 -264 7 -587z m9774 536 l149 -53 -6 -1149 c-3 -631 -8 -1150 -10 -1152 -4
-4 -293 99 -302 108 -8 7 6 2298 14 2298 3 0 73 -23 155 -52z m-10091 -1225
l-6 -1172 -92 -40 c-51 -22 -99 -43 -109 -47 -15 -6 -16 79 -14 1177 l3 1182
110 38 c61 20 111 36 112 35 1 -1 -1 -529 -4 -1173z m10456 1090 l44 -16 -7
-1151 c-5 -633 -9 -1153 -11 -1155 -2 -1 -52 16 -111 40 l-107 44 6 530 c4
291 7 810 7 1152 l0 623 68 -26 c37 -14 87 -33 111 -41z m-10712 -235 c-4
-128 -7 -663 -7 -1188 l0 -955 -70 -32 -70 -31 0 1192 0 1193 68 26 c37 14 71
26 76 26 5 1 7 -94 3 -231z m10921 150 l52 -19 0 -1155 c0 -728 -4 -1154 -10
-1154 -14 0 -164 60 -173 70 -5 4 -6 526 -2 1159 l8 1150 36 -15 c20 -9 60
-25 89 -36z m-11108 -1183 l0 -1195 -51 -26 c-28 -14 -52 -24 -54 -22 -1 2 0
544 3 1205 l5 1202 41 15 c23 8 44 15 49 15 4 1 7 -537 7 -1194z m-140 -42 c0
-654 -3 -1197 -6 -1209 -4 -17 -59 -54 -79 -54 -3 0 -4 543 -3 1208 l3 1207
35 17 c19 10 38 18 43 18 4 0 7 -534 7 -1187z m11445 1147 c3 0 5 -522 5
-1161 0 -925 -3 -1160 -12 -1156 -80 31 -97 41 -100 55 -2 9 -2 531 0 1159 l4
1142 49 -20 c28 -10 52 -19 54 -19z m-11574 -23 c-1 -4 -1 -549 -1 -1211 l0
-1204 -60 -31 -60 -31 0 1223 0 1224 53 21 c52 21 69 23 68 9z m11684 -28 l48
-21 -7 -1151 c-4 -633 -9 -1153 -11 -1155 -2 -2 -24 5 -49 17 l-46 20 0 1155
c0 652 4 1156 9 1156 5 0 30 -10 56 -21z m-11845 -1244 l0 -1224 -43 -26 c-24
-14 -47 -25 -50 -25 -4 0 -7 554 -7 1230 l0 1231 43 19 c23 10 45 19 50 19 4
1 7 -550 7 -1224z m11990 107 c0 -593 -3 -1114 -6 -1158 l-7 -81 -28 11 -29
10 0 856 c0 470 3 991 7 1156 l6 302 29 -10 28 -10 0 -1076z m105 -132 c-4
-635 -9 -1156 -10 -1158 -2 -2 -18 4 -36 13 l-32 17 7 97 c3 53 6 574 6 1158
l0 1063 36 -18 36 -17 -7 -1155z m-12239 -1275 c-2 -5 -22 -20 -45 -33 l-41
-23 0 683 0 684 43 21 42 20 3 -671 c1 -369 0 -675 -2 -681z m12314 1330 l30
-16 0 -624 c0 -344 -2 -625 -5 -625 -4 0 -19 7 -35 15 l-30 16 0 624 c0 344 2
625 5 625 4 0 19 -7 35 -15z m-5699 -35 c252 -9 751 -40 758 -46 10 -9 -13
-16 -180 -58 -578 -147 -1207 -163 -1804 -45 -168 33 -415 99 -415 111 0 4 15
8 33 8 19 0 103 5 188 11 394 27 988 35 1420 19z m-6743 -1625 c-2 -2 -18 -6
-35 -10 l-33 -7 0 795 0 795 33 19 32 19 3 -805 c1 -442 1 -805 0 -806z
m12592 956 l0 -619 -40 15 -40 16 0 624 0 623 40 -20 40 -20 0 -619z m-7688
585 c262 -99 633 -182 983 -222 208 -24 663 -24 870 0 307 34 620 102 884 190
l133 45 202 -25 c572 -70 1130 -172 1659 -301 l230 -56 -24 -19 c-667 -530
-1367 -879 -2159 -1078 -465 -117 -844 -163 -1350 -164 -506 -1 -906 46 -1370
164 -436 110 -768 234 -1170 436 -338 170 -657 376 -968 623 l-83 66 68 17
c428 111 1165 247 1693 312 334 42 323 42 402 12z m-5012 -784 l0 -789 -40
-16 -40 -15 0 778 0 779 37 26 c21 14 39 25 40 25 2 0 3 -355 3 -788z m12824
-37 c-4 -424 -8 -772 -10 -773 -1 -2 -19 1 -38 8 l-36 12 0 164 c0 124 3 164
13 165 10 0 10 2 0 6 -10 4 -13 138 -13 624 l0 619 46 -28 45 -27 -7 -770z
m-12956 -807 c-7 -4 -20 -8 -28 -8 -13 0 -15 90 -12 762 l2 763 23 19 22 18 3
-773 c2 -612 0 -774 -10 -781z m13037 1526 l25 -16 0 -769 0 -769 -35 17 -35
17 0 685 c0 612 5 851 17 851 2 0 15 -7 28 -16z m-13115 -799 l0 -764 -32 -17
-31 -16 7 758 6 758 22 23 c12 13 23 23 25 23 2 0 3 -344 3 -765z m13240 -52
l0 -762 -30 17 -30 17 0 560 c0 308 3 651 7 762 l6 202 23 -17 23 -17 1 -762z
m-330 -454 l0 -151 -32 7 c-18 4 -36 9 -40 12 -5 2 -8 64 -8 138 0 144 -1 141
58 144 22 1 22 0 22 -150z m-120 5 l0 -126 -29 5 c-15 3 -51 9 -80 13 l-52 7
3 101 3 101 55 11 c108 23 100 32 100 -112z m-12310 8 l0 -109 -51 -11 c-28
-7 -55 -12 -60 -12 -5 0 -9 53 -9 120 l0 120 60 0 60 0 0 -108z m178 92 l33
-5 -3 -82 -3 -82 -82 -10 -83 -11 0 103 0 102 53 -5 c28 -3 67 -7 85 -10z
m224 -52 c3 -4 8 -28 10 -54 3 -47 3 -48 -27 -48 -16 0 -54 -3 -82 -6 l-53 -7
0 81 0 81 73 -20 c39 -11 75 -23 79 -27z m11708 -53 l0 -91 -80 4 -80 3 0 71
0 71 63 15 c103 26 97 31 97 -73z m-12685 -308 c-3 -7 -8 -11 -11 -8 -8 8 -4
358 4 371 8 13 15 -341 7 -363z m12485 287 l0 -63 -55 -3 -55 -3 0 50 c0 49 0
49 43 64 67 24 67 24 67 -45z m-11352 7 c82 -42 85 -45 51 -45 -20 0 -64 3
-98 6 l-61 7 0 38 c0 22 5 39 10 39 6 0 50 -20 98 -45z m-1188 -284 l0 -309
-69 -16 c-39 -9 -72 -16 -75 -16 -4 0 -6 121 -6 268 l0 268 33 30 c41 39 100
84 110 84 4 0 7 -139 7 -309z m12390 250 c0 -32 -4 -40 -22 -45 -42 -11 -48
-7 -48 29 0 28 5 38 23 45 40 16 47 12 47 -29z m-122 -52 c-20 -13 -35 -11
-42 6 -3 9 5 20 22 29 25 13 27 13 30 -6 2 -11 -2 -25 -10 -29z m-60 -1 c-3
-7 -15 -14 -29 -16 -23 -2 -23 -2 -5 13 24 18 39 20 34 3z m1500 -102 l42 -46
0 -240 c0 -132 -1 -240 -2 -240 -2 0 -34 13 -73 28 l-70 29 -3 66 -3 67 33 0
33 0 -32 28 c-32 27 -33 29 -33 112 0 47 3 129 7 182 l6 97 27 -19 c14 -10 45
-39 68 -64z m-13898 -194 l0 -258 -47 -17 c-27 -9 -51 -17 -55 -17 -5 0 -8 97
-8 216 l0 215 52 60 c29 32 54 59 55 59 2 0 3 -116 3 -258z m14039 30 l41 -54
0 -184 c0 -121 -4 -184 -10 -184 -6 0 -29 9 -50 20 l-40 20 0 227 c0 127 4
223 9 218 4 -6 27 -34 50 -63z m-14183 42 c-3 -9 -6 -100 -6 -204 0 -170 -2
-188 -17 -193 -10 -2 -26 -8 -35 -12 -17 -7 -18 5 -18 161 l0 169 33 47 c31
46 55 64 43 32z m396 -81 l15 -48 52 -3 51 -3 0 -60 c0 -67 2 -65 -85 -73
l-60 -6 0 120 c0 66 3 120 6 120 3 0 13 -21 21 -47z m-487 -319 c-4 -26 -36
-54 -60 -54 -3 0 -5 57 -5 128 0 126 1 127 33 177 l32 50 3 -135 c2 -74 0
-149 -3 -166z m745 216 c15 -8 20 -19 18 -38 -3 -25 -6 -27 -60 -30 l-58 -3 0
55 0 55 39 -14 c22 -7 49 -19 61 -25z m13654 -39 l36 -59 0 -126 c0 -69 -2
-126 -5 -126 -2 0 -20 8 -40 17 l-35 17 0 168 c0 92 2 168 4 168 3 0 21 -26
40 -59z m-594 -11 c0 -47 -2 -50 -22 -46 -82 17 -78 14 -78 56 l0 40 50 0 50
0 0 -50z m168 29 c19 -8 22 -15 22 -70 0 -46 -3 -60 -13 -56 -7 3 -41 13 -75
22 l-62 18 0 53 0 53 53 -6 c28 -3 62 -10 75 -14z m-311 -55 c-2 -2 -18 -1
-35 2 -43 9 -43 38 1 51 30 8 32 8 35 -20 2 -16 2 -31 -1 -33z m-12838 35 c40
-24 35 -34 -14 -25 -26 5 -35 12 -35 26 0 25 7 25 49 -1z m-900 -126 l1 -118
-30 -17 -30 -17 0 91 c0 80 3 97 25 135 14 23 28 43 30 43 2 0 4 -53 4 -117z
m13661 107 c0 -5 -9 -10 -21 -10 -11 0 -17 5 -14 10 3 6 13 10 21 10 8 0 14
-4 14 -10z m-13747 -278 c-17 -12 -18 -9 -21 47 -2 43 2 69 15 93 l18 33 3
-80 c2 -67 0 -82 -15 -93z m14672 98 c18 -35 25 -65 25 -104 0 -62 -7 -72 -38
-50 -20 14 -22 24 -22 110 0 52 2 94 5 94 2 0 16 -22 30 -50z m-14729 -139
c-15 -14 -16 -13 -16 10 0 14 6 41 13 60 l12 34 3 -44 c2 -30 -2 -49 -12 -60z
m14809 -27 c20 -48 19 -57 -5 -42 -13 9 -20 24 -20 45 0 42 6 42 25 -3z
m-14835 11 c0 -8 -4 -15 -10 -15 -5 0 -7 7 -4 15 4 8 8 15 10 15 2 0 4 -7 4
-15z"/>
<path d="M7562 10444 c-43 -30 -21 -124 30 -124 45 0 64 84 28 120 -24 24 -29
24 -58 4z"/>
<path d="M7257 10362 c-35 -38 -10 -92 42 -92 36 0 51 17 51 57 0 50 -59 72
-93 35z"/>
<path d="M8518 10244 c-22 -48 30 -105 67 -74 18 15 20 71 3 88 -21 21 -57 14
-70 -14z"/>
<path d="M7640 10246 c-19 -23 -8 -61 18 -64 44 -7 67 32 36 62 -19 20 -38 20
-54 2z"/>
<path d="M8822 10227 c-43 -46 -16 -117 46 -119 45 -1 72 26 72 73 0 28 -6 42
-22 53 -32 23 -71 20 -96 -7z"/>
<path d="M7410 10205 c-19 -22 -4 -64 25 -71 31 -8 55 10 55 40 0 43 -53 63
-80 31z"/>
<path d="M8301 10152 c-14 -27 8 -55 40 -50 19 2 24 9 24 33 0 25 -4 31 -27
33 -18 2 -30 -3 -37 -16z"/>
<path d="M6384 10114 c-20 -29 -11 -69 19 -88 22 -14 49 2 61 37 11 31 -15 77
-44 77 -11 0 -27 -12 -36 -26z"/>
<path d="M8622 10128 c-29 -29 -2 -72 40 -66 42 6 32 78 -11 78 -9 0 -22 -5
-29 -12z"/>
<path d="M6183 10090 c-44 -18 -23 -50 32 -50 26 0 53 27 39 39 -16 15 -48 20
-71 11z"/>
<path d="M7033 9960 c-28 -213 -85 -341 -127 -285 -20 27 -51 149 -67 259
l-13 90 -22 -108 c-28 -133 -61 -245 -79 -270 -28 -37 -57 17 -94 173 -22 91
-31 110 -31 65 0 -40 -35 -176 -59 -230 -22 -48 -43 -63 -65 -45 -17 14 -44
110 -61 211 -12 74 -12 74 -19 35 -17 -91 -49 -194 -61 -199 -20 -7 -41 32
-60 114 -9 41 -18 80 -20 85 -2 10 -4 2 -25 -106 -6 -31 -17 -65 -25 -75 -15
-19 -15 -19 -30 1 -9 11 -28 59 -44 108 l-28 88 -6 -60 c-5 -61 -38 -135 -64
-145 -14 -6 -35 11 -70 59 -21 28 -22 28 -23 8 -1 -81 82 -193 172 -233 62
-27 187 -42 268 -32 55 6 72 5 110 -12 127 -56 412 -22 753 90 60 19 123 34
140 32 31 -3 32 -5 38 -58 11 -101 20 -130 50 -165 44 -49 106 -70 209 -69 94
1 156 20 252 77 l55 34 29 -24 c100 -80 345 -92 703 -32 l124 21 56 -26 c162
-72 400 -82 651 -26 140 31 145 36 49 43 -109 9 -159 23 -159 45 0 19 44 107
69 137 16 19 16 19 -9 2 -68 -48 -87 -57 -117 -57 -48 0 -54 46 -16 125 13 27
11 26 -19 -10 -52 -62 -71 -80 -102 -100 -28 -18 -29 -18 -43 1 -12 15 -14 43
-11 125 l4 106 -41 -91 c-65 -144 -124 -230 -151 -219 -20 7 -31 62 -39 182
l-7 103 -44 -81 c-55 -104 -113 -191 -132 -198 -24 -10 -32 18 -32 127 l-1
105 -22 -60 c-39 -103 -69 -150 -97 -150 -21 0 -27 7 -37 45 -6 25 -12 74 -12
109 l-1 65 -50 -100 c-28 -54 -61 -112 -75 -129 -40 -49 -47 -26 -43 137 l3
144 -28 -66 c-35 -84 -77 -136 -102 -127 -16 7 -17 18 -13 132 l5 124 -36 -60
c-44 -75 -98 -139 -117 -139 -7 0 -17 12 -20 26 -7 27 0 134 11 169 3 11 -16
-22 -42 -74 -26 -51 -62 -110 -80 -130 -30 -35 -32 -35 -50 -18 -16 16 -18 35
-17 172 l1 155 -43 -94 c-58 -127 -113 -218 -127 -213 -14 4 -16 139 -5 227
l8 55 -41 -75 c-49 -91 -75 -120 -106 -120 -21 0 -23 4 -23 59 0 33 11 96 25
145 31 107 31 110 -1 50 -70 -133 -103 -141 -105 -25 l-1 66 -13 -61 c-22
-103 -68 -169 -103 -148 -19 12 -47 93 -58 169 l-7 50 -8 -57 c-9 -60 -36
-125 -64 -148 -13 -11 -18 -10 -30 6 -14 18 -31 87 -37 149 -3 22 -7 11 -16
-39 -16 -86 -47 -149 -70 -144 -26 5 -42 70 -50 202 l-7 121 -12 -95z"/>
<path d="M7322 10030 c0 -14 2 -19 5 -12 2 6 2 18 0 25 -3 6 -5 1 -5 -13z"/>
<path d="M9403 10004 c-15 -24 -15 -29 -2 -53 17 -31 68 -41 89 -16 16 19 16
60 0 80 -20 25 -67 19 -87 -11z"/>
<path d="M9695 10000 c-8 -14 3 -30 21 -30 8 0 14 9 14 20 0 21 -24 28 -35 10z"/>
<path d="M7255 9431 c-29 -27 -142 -76 -224 -97 -174 -44 -396 -28 -603 45
-45 17 -84 28 -86 26 -7 -6 92 -75 146 -101 107 -51 199 -67 366 -62 93 3 185
12 239 24 84 17 89 18 98 1 31 -54 118 -105 217 -126 112 -24 330 -8 506 38
l75 19 80 -29 c169 -60 344 -59 500 2 69 26 147 69 128 69 -4 0 -40 -9 -80
-21 -104 -30 -315 -37 -426 -15 -45 9 -107 28 -136 41 -51 22 -56 23 -102 9
-136 -42 -231 -57 -348 -58 -125 -1 -172 9 -231 47 -49 32 -87 93 -92 148 -5
49 -10 57 -27 40z"/>
<path d="M9000 9193 c0 -6 8 -17 18 -26 27 -24 319 -25 329 -2 3 9 4 17 2 19
-10 9 -349 17 -349 9z"/>
<path d="M9087 9022 c-26 -28 -22 -78 7 -97 45 -30 96 1 96 58 0 50 -70 76
-103 39z"/>
<path d="M9402 9008 c-7 -7 -12 -27 -12 -45 0 -24 7 -37 26 -50 24 -15 29 -15
53 -2 52 29 31 109 -29 109 -14 0 -31 -5 -38 -12z"/>
<path d="M7926 8915 c-12 -12 -13 -21 -6 -36 13 -23 33 -25 51 -3 9 11 10 20
3 32 -15 23 -29 25 -48 7z"/>
<path d="M9257 8874 c-14 -14 -7 -53 12 -63 26 -14 54 8 49 40 -2 17 -10 25
-28 27 -14 2 -29 0 -33 -4z"/>
<path d="M7726 8769 c-50 -40 -24 -119 40 -119 68 0 97 68 49 115 -30 30 -54
31 -89 4z"/>
<path d="M7423 8673 c9 -2 23 -2 30 0 6 3 -1 5 -18 5 -16 0 -22 -2 -12 -5z"/>
<path d="M8026 8637 c-38 -27 2 -95 42 -71 21 14 28 50 12 70 -15 17 -31 18
-54 1z"/>
<path d="M7813 8484 c-3 -8 -1 -20 5 -26 16 -16 42 -2 42 22 0 24 -38 28 -47
4z"/>
<path d="M5391 9604 c-11 -26 -20 -27 -61 -10 -11 5 -19 -3 -27 -25 -10 -26
-16 -31 -38 -27 -22 5 -25 2 -25 -24 0 -39 17 -42 74 -13 65 33 149 34 227 2
30 -13 61 -21 67 -19 19 6 14 29 -8 35 -12 3 -20 14 -20 27 0 18 -4 21 -24 18
-20 -4 -27 1 -37 23 -14 35 -16 35 -40 7 l-19 -23 -23 28 c-28 33 -31 33 -46
1z"/>
<path d="M4828 9525 c-24 -49 -30 -52 -68 -30 -38 22 -46 18 -60 -25 -13 -39
-15 -40 -58 -40 l-44 0 6 -32 c4 -18 13 -39 21 -48 14 -13 22 -11 73 17 60 33
156 55 207 46 77 -12 134 -28 177 -49 57 -29 64 -29 78 -4 9 16 6 22 -19 34
-20 11 -31 25 -35 51 -8 40 -6 38 -41 25 -24 -9 -27 -7 -47 35 l-22 45 -38
-37 c-21 -20 -39 -35 -41 -32 -3 2 -16 23 -31 47 -14 23 -29 42 -31 42 -3 0
-15 -20 -27 -45z"/>
<path d="M5470 9130 c-22 -43 -32 -47 -70 -25 -36 20 -38 19 -51 -26 -13 -40
-13 -41 -51 -35 -38 6 -38 6 -38 -28 0 -58 21 -64 94 -27 107 55 216 53 342
-5 55 -25 58 -25 71 -8 18 25 16 32 -9 36 -16 2 -25 13 -33 39 -9 33 -12 36
-35 27 -27 -10 -46 6 -57 50 -7 30 -16 28 -50 -14 l-29 -37 -28 47 c-15 25
-29 46 -31 46 -3 0 -14 -18 -25 -40z"/>
<path d="M4960 8980 c-13 -27 -27 -50 -32 -50 -5 0 -28 9 -50 20 -47 22 -50
20 -70 -43 l-12 -38 -49 6 -50 7 7 -32 c3 -18 6 -39 6 -46 0 -7 9 -18 20 -24
17 -9 32 -4 83 24 123 69 250 70 410 5 85 -34 110 -34 115 -3 2 16 -4 23 -22
28 -20 5 -28 16 -37 52 -9 33 -16 44 -26 40 -52 -20 -57 -18 -81 36 l-23 53
-35 -42 c-20 -24 -39 -43 -44 -43 -4 0 -22 23 -40 50 -18 28 -35 50 -39 50 -4
0 -18 -22 -31 -50z"/>
<path d="M5801 8842 c-23 -45 -33 -49 -71 -27 -35 20 -35 20 -50 -26 -13 -40
-14 -40 -52 -34 -37 7 -38 6 -38 -23 0 -26 21 -62 36 -62 2 0 30 14 61 32 47
27 69 32 137 36 73 4 90 1 161 -27 91 -35 110 -38 119 -15 8 22 9 21 -19 28
-18 5 -26 15 -31 41 -3 19 -8 35 -9 35 -2 0 -15 -4 -30 -10 -23 -9 -26 -7 -41
30 -9 22 -19 40 -23 40 -3 0 -18 -14 -34 -32 -27 -33 -27 -33 -45 -12 -9 11
-24 31 -33 44 l-16 25 -22 -43z"/>
<path d="M3515 8980 c-14 -27 -28 -50 -31 -50 -2 0 -23 9 -44 20 l-40 20 -15
-36 c-8 -20 -15 -41 -15 -47 0 -6 -17 -7 -45 -4 -45 7 -45 7 -45 -24 0 -38 16
-69 36 -69 8 0 39 13 69 29 120 64 228 64 383 -1 72 -30 76 -30 88 -13 19 26
18 29 -15 41 -22 9 -30 20 -35 48 -7 39 -12 41 -49 27 -22 -9 -26 -6 -43 32
-10 23 -19 44 -21 46 -2 3 -21 -13 -43 -34 l-39 -38 -32 51 c-18 29 -33 52
-35 52 -2 0 -15 -22 -29 -50z"/>
<path d="M4010 8780 c-13 -27 -27 -50 -32 -50 -5 0 -26 9 -48 20 -22 11 -41
20 -44 20 -2 0 -12 -23 -22 -51 l-18 -50 -50 7 -49 6 7 -32 c3 -18 6 -39 6
-46 0 -7 8 -18 19 -23 14 -8 36 -1 97 30 128 65 259 63 415 -7 65 -29 93 -28
97 3 3 17 -3 24 -22 29 -21 5 -29 16 -37 50 -12 46 -13 47 -66 27 -7 -3 -22
15 -35 41 -12 25 -26 46 -30 46 -5 0 -22 -16 -39 -35 -17 -19 -35 -35 -39 -35
-5 0 -22 23 -39 50 -17 28 -35 50 -39 50 -5 0 -19 -22 -32 -50z"/>
<path d="M11155 8781 c-7 -12 12 -24 25 -16 11 7 4 25 -10 25 -5 0 -11 -4 -15
-9z"/>
<path d="M11046 8754 c-21 -21 -20 -37 4 -59 41 -37 97 24 58 63 -17 17 -44
15 -62 -4z"/>
<path d="M10444 8726 c-9 -24 4 -48 23 -44 12 2 18 12 18 28 0 29 -32 41 -41
16z"/>
<path d="M11201 8704 c-28 -20 -27 -50 3 -69 34 -22 66 -5 66 34 0 37 -38 56
-69 35z"/>
<path d="M11624 8686 c-24 -18 -11 -48 18 -44 14 2 24 11 26 24 4 26 -20 37
-44 20z"/>
<path d="M10623 8679 c-16 -16 -5 -39 17 -39 20 0 30 17 22 38 -5 15 -24 16
-39 1z"/>
<path d="M11822 8644 c-43 -30 -16 -104 39 -104 43 0 65 73 31 103 -23 21 -41
21 -70 1z"/>
<path d="M10080 8615 c-17 -21 -5 -45 24 -45 28 0 37 17 24 43 -11 21 -31 22
-48 2z"/>
<path d="M9431 8591 c-13 -24 9 -57 33 -48 23 9 31 34 16 52 -17 20 -37 19
-49 -4z"/>
<path d="M10220 8510 c-9 -16 -8 -25 1 -36 26 -32 84 0 62 34 -16 26 -50 27
-63 2z"/>
<path d="M9270 8480 c-25 -25 -25 -42 -2 -63 24 -22 45 -21 65 1 23 25 21 48
-5 66 -29 20 -34 20 -58 -4z"/>
<path d="M11631 8451 c-8 -15 -4 -29 22 -67 27 -41 32 -58 32 -109 0 -33 -4
-76 -8 -97 -8 -32 -6 -38 14 -49 13 -6 61 -14 108 -16 144 -8 283 36 349 112
48 54 43 68 -17 60 -43 -6 -51 -4 -60 14 -6 11 -11 33 -11 50 0 30 -25 65 -40
56 -4 -3 -11 -17 -15 -32 -11 -45 -47 -123 -56 -123 -5 0 -20 38 -34 85 -15
47 -29 85 -33 85 -4 0 -21 -39 -37 -87 -27 -78 -55 -119 -55 -80 0 27 -81 176
-107 197 -32 25 -40 25 -52 1z"/>
<path d="M9513 8453 c-7 -3 -13 -13 -13 -23 0 -19 17 -30 38 -23 6 3 12 13 12
23 0 19 -17 30 -37 23z"/>
<path d="M8627 8395 c-8 -18 11 -31 25 -17 11 11 3 32 -12 32 -4 0 -10 -7 -13
-15z"/>
<path d="M8477 8302 c-22 -24 -21 -45 2 -66 26 -23 52 -17 70 16 14 24 14 28
-3 47 -24 26 -48 27 -69 3z"/>
<path d="M8706 8284 c-10 -26 19 -52 42 -38 9 6 17 20 17 30 0 26 -50 32 -59
8z"/>
<path d="M7977 8134 c-12 -12 -8 -42 6 -47 21 -8 39 8 35 29 -3 19 -29 30 -41
18z"/>
<path d="M7829 8054 c-17 -21 0 -49 32 -49 18 0 25 6 27 24 6 38 -34 55 -59
25z"/>
<path d="M8037 8037 c-8 -21 8 -39 29 -35 27 5 25 42 -2 46 -12 2 -24 -3 -27
-11z"/>
<path d="M12764 7674 c10 -16 29 -43 42 -61 13 -17 24 -34 24 -36 0 -2 -35
-10 -77 -17 l-78 -13 55 -9 c30 -4 69 -10 87 -13 l32 -6 3 -73 3 -73 85 93
c46 51 86 96 87 101 1 4 -56 35 -128 68 -165 76 -157 73 -135 39z"/>
<path d="M11830 7270 c-28 -17 4 -41 144 -109 80 -38 177 -88 215 -110 71 -42
141 -56 141 -28 0 20 -58 71 -124 111 -103 62 -351 151 -376 136z"/>
<path d="M4535 7783 c-95 -20 -113 -32 -50 -33 28 -1 66 -7 85 -14 l35 -13
-34 -18 -34 -17 26 -16 c35 -22 34 -28 -8 -43 -19 -7 -35 -16 -35 -19 0 -4 18
-15 40 -25 38 -17 39 -19 24 -37 -19 -20 -192 -139 -261 -179 -68 -40 -145
-55 -199 -41 -24 7 -57 12 -72 12 -58 0 -56 17 4 37 l59 20 -72 8 c-40 4 -73
11 -73 16 0 5 21 20 48 33 l47 25 -52 1 c-28 0 -54 4 -58 9 -3 6 8 25 25 45
l31 34 -67 7 c-134 15 -344 -11 -469 -57 -83 -30 -167 -113 -184 -182 -27
-108 26 -210 141 -271 227 -119 317 -152 447 -166 131 -13 361 -11 574 7 125
10 236 14 317 10 115 -6 160 -13 380 -61 261 -57 522 -28 688 76 42 26 126 73
186 104 129 67 208 139 250 229 59 124 42 213 -56 301 -55 50 -167 108 -238
124 -52 12 -196 13 -224 2 -13 -5 -3 -7 30 -7 105 1 184 -38 184 -90 0 -13 -1
-24 -2 -24 -2 0 -34 6 -73 14 -38 8 -106 17 -150 20 l-80 6 65 -15 c36 -8 97
-26 135 -39 l70 -25 -60 -1 -60 -2 58 -14 c136 -33 257 -132 257 -211 0 -33
-16 -53 -42 -53 -9 0 -46 25 -80 56 -120 107 -193 128 -352 99 -78 -14 -132
-17 -262 -13 -91 3 -163 4 -161 2 12 -13 172 -26 318 -28 159 -1 179 -3 198
-20 46 -42 20 -69 -83 -84 l-51 -8 50 -16 50 -15 -65 -8 c-36 -5 -60 -9 -55
-11 6 -1 37 -8 70 -15 l60 -12 -69 -20 -70 -21 48 -11 c60 -13 63 -27 9 -39
-43 -9 -59 -26 -25 -26 9 -1 33 -9 52 -20 l35 -19 -35 -1 c-65 -2 -76 -14 -25
-28 49 -13 52 -32 5 -32 -39 0 -45 -14 -13 -29 42 -19 16 -30 -100 -43 -133
-15 -276 -2 -457 41 -221 53 -383 62 -670 37 -85 -8 -157 -12 -159 -10 -2 2 3
4 13 4 24 0 116 41 116 51 0 5 -17 9 -37 9 l-38 0 30 24 29 24 -53 7 -53 7 36
26 c20 14 34 27 32 29 -2 2 -23 -1 -47 -6 -51 -12 -56 -9 -41 23 l11 25 -37
-16 c-20 -8 -41 -19 -47 -23 -5 -5 -37 -16 -69 -25 -84 -25 -163 -16 -228 24
-46 29 -49 29 -43 10 6 -19 4 -21 -19 -17 -26 5 -26 5 -11 -18 21 -32 20 -34
-22 -34 -35 0 -36 0 -18 -20 18 -20 17 -20 -20 -20 -28 0 -36 -3 -32 -14 4
-10 1 -13 -9 -9 -8 3 -14 -1 -14 -11 0 -20 1 -21 -66 9 l-57 25 7 53 c9 65 41
125 84 153 35 24 123 40 175 31 18 -3 118 -1 222 3 231 9 273 21 425 120 180
116 209 129 304 142 82 11 204 3 273 -18 10 -3 -7 8 -37 24 l-54 30 40 6 c67
12 73 21 28 48 l-39 23 30 3 c57 5 62 12 25 32 l-35 18 35 14 c34 14 33 15
-75 21 -65 4 -149 17 -204 32 -108 28 -129 29 -226 8z"/>
<path d="M4575 7254 c20 -139 92 -204 222 -204 l68 1 -24 19 -23 20 28 0 c29
1 28 1 -11 23 l-40 22 35 4 35 4 -50 23 c-50 23 -50 23 -17 23 43 1 33 17 -15
26 -34 6 -36 8 -20 20 24 17 21 25 -10 26 -24 0 -25 2 -9 8 33 13 1 23 -91 29
l-86 5 8 -49z"/>
<path d="M6415 7142 c-99 -176 -178 -238 -374 -295 l-83 -24 102 -6 c56 -3
104 -7 106 -10 3 -3 -2 -22 -10 -42 -24 -57 -21 -62 33 -70 l49 -7 9 -59 8
-59 81 57 82 57 12 111 c6 60 20 186 31 278 11 93 19 170 17 172 -2 2 -30 -44
-63 -103z"/>
<path d="M2652 7144 c-73 -200 -49 -340 84 -483 111 -120 235 -172 429 -177
l120 -3 -100 18 c-55 10 -120 24 -144 31 -44 12 -91 37 -91 49 0 3 46 5 102 3
57 -2 121 1 143 6 40 8 40 9 -30 16 -103 10 -176 26 -170 37 4 5 72 9 153 10
118 1 139 3 107 11 -22 5 -81 23 -132 39 -154 50 -193 103 -54 74 40 -8 96
-15 124 -14 l52 0 -75 28 c-238 87 -368 193 -486 396 -9 16 -13 10 -32 -41z"/>
<path d="M4707 6808 c-3 -29 -22 -110 -43 -180 -20 -69 -34 -133 -31 -143 6
-13 14 -14 44 -8 40 8 111 8 353 0 80 -3 134 -4 120 -1 -113 20 -147 28 -176
42 -62 29 -33 56 33 31 40 -15 151 -13 198 4 l40 15 -50 7 c-259 36 -324 77
-138 88 54 3 127 11 163 18 l65 14 -130 6 c-126 7 -185 19 -185 37 0 5 64 8
143 6 l142 -3 -80 14 c-44 8 -120 26 -170 40 -119 35 -245 64 -271 65 -18 0
-22 -7 -27 -52z"/>
<path d="M9185 6806 c-19 -14 -19 -15 -1 -34 16 -18 26 -20 89 -15 84 6 147
20 147 33 0 26 -202 40 -235 16z"/>
<path d="M10155 6309 c-49 -10 -110 -19 -135 -19 -43 -1 -44 -1 -21 -14 l24
-13 -24 -6 c-13 -3 -55 -9 -92 -12 -37 -4 -66 -10 -63 -12 3 -3 29 -13 58 -23
l52 -17 -59 -15 -60 -16 48 -1 c26 -1 47 -5 47 -10 0 -10 -66 -36 -125 -50
l-40 -9 35 -2 c74 -3 77 -14 16 -46 l-56 -29 37 -5 38 -6 -64 -42 c-45 -29
-59 -43 -47 -47 9 -3 23 -7 31 -10 31 -9 210 112 323 219 72 68 192 213 170
205 -2 -1 -43 -10 -93 -20z"/>
<path d="M4430 6166 c-6 -18 -17 -82 -25 -142 -7 -60 -21 -147 -29 -194 -9
-47 -16 -117 -16 -157 0 -67 2 -73 30 -97 17 -14 47 -29 68 -33 54 -12 175 -7
277 11 76 13 333 81 342 90 1 1 -66 8 -150 14 -186 15 -237 22 -237 33 0 10
107 44 187 60 67 14 75 29 15 29 -56 0 -172 34 -172 50 0 11 41 27 120 44 142
32 142 32 20 39 -138 7 -270 26 -270 38 0 14 59 40 165 75 l100 32 -66 -5
c-106 -9 -158 3 -197 44 -32 35 -33 37 -15 54 10 10 43 25 73 33 l55 15 -132
0 -131 1 -12 -34z"/>
<path d="M9283 5728 c14 -25 35 -68 46 -97 19 -47 20 -54 6 -89 -15 -37 -68
-82 -97 -82 -23 0 -35 20 -41 67 -6 51 -36 116 -74 161 l-28 34 -2 -60 c-2
-100 -48 -223 -89 -239 -20 -8 -30 8 -51 80 -20 71 -75 159 -131 210 -40 35
-76 52 -55 25 6 -7 34 -74 63 -148 60 -154 60 -173 -4 -204 -35 -17 -42 -18
-65 -5 -20 11 -28 27 -37 71 -16 79 -55 141 -120 189 -30 23 -57 40 -59 37 -3
-3 10 -39 30 -80 64 -139 63 -192 -5 -214 -44 -14 -82 -4 -97 27 -6 13 -36 77
-67 142 -30 64 -57 117 -59 117 -2 0 2 -28 10 -62 7 -35 16 -95 19 -134 6 -68
6 -72 -22 -102 -60 -63 -106 -45 -117 46 -3 28 -17 73 -31 100 -25 49 -124
177 -131 170 -2 -2 7 -34 20 -71 14 -37 30 -99 36 -137 11 -62 10 -72 -8 -107
-37 -72 -128 -107 -166 -65 -10 10 -24 43 -33 73 -19 65 -74 173 -110 214
l-25 30 5 -40 c3 -22 11 -93 17 -157 10 -105 10 -120 -5 -143 -39 -60 -107
-12 -125 88 -12 68 -56 166 -96 212 -26 29 -26 30 -21 5 3 -14 9 -82 12 -153
6 -114 5 -129 -11 -147 -40 -44 -135 -2 -135 60 0 38 -44 120 -98 181 l-47 54
3 -75 c2 -41 -4 -122 -12 -180 -13 -90 -20 -108 -41 -127 -31 -28 -65 -29 -95
-5 -18 15 -23 31 -26 97 -5 82 -25 154 -73 259 l-27 61 -7 -105 c-12 -208 -66
-350 -134 -350 -27 0 -30 12 -36 125 -3 69 -10 93 -49 175 l-44 95 4 -95 c4
-83 1 -105 -22 -173 -39 -117 -102 -203 -143 -195 -16 3 -19 17 -24 118 -8
136 -29 202 -90 273 -45 52 -64 61 -49 21 17 -44 40 -205 40 -281 0 -70 -1
-73 -38 -113 -66 -69 -102 -48 -102 59 0 42 -8 90 -20 126 -19 57 -89 190 -95
183 -2 -2 1 -26 6 -53 28 -143 -51 -409 -162 -545 -69 -84 -72 -108 -18 -136
26 -13 36 -13 87 0 278 71 1614 228 2822 331 205 18 230 25 336 101 156 110
224 246 194 387 -18 90 -104 184 -184 203 l-30 7 27 -45z"/>
<path d="M10361 5724 l-24 -49 -13 30 c-7 17 -13 25 -14 18 0 -14 -39 -53 -52
-53 -4 0 -8 15 -8 32 l0 33 -25 -38 c-30 -43 -45 -47 -45 -12 0 32 -6 31 -37
-5 -22 -27 -55 -41 -52 -22 1 4 1 16 0 27 -1 16 -6 12 -26 -18 -30 -43 -42
-46 -51 -13 l-6 24 -27 -31 -28 -31 -7 39 -8 39 -22 -40 c-26 -46 -40 -50 -44
-10 l-4 29 -22 -38 c-27 -44 -38 -45 -51 -4 l-11 31 -18 -41 c-11 -22 -22 -41
-25 -41 -4 0 -12 14 -18 30 -6 17 -16 30 -21 30 -10 0 -26 -99 -17 -108 3 -3
88 9 188 26 100 18 229 39 287 47 102 14 191 36 218 53 9 6 12 26 10 62 l-3
53 -24 -49z"/>
<path d="M5544 5270 c1 -64 -14 -81 -27 -31 -8 31 -27 43 -27 17 0 -8 -8 -24
-19 -37 l-18 -23 -21 47 c-23 52 -39 61 -39 22 0 -24 -27 -65 -42 -65 -4 0
-13 21 -20 47 l-14 47 -13 -38 c-7 -20 -22 -49 -34 -63 l-20 -26 0 30 c0 17
-5 45 -11 62 l-12 33 -17 -39 c-9 -21 -26 -46 -38 -56 -20 -18 -20 -18 -30 30
-6 26 -15 59 -20 73 -9 24 -10 24 -21 -15 -6 -22 -21 -55 -34 -73 l-24 -32 -7
50 c-6 47 -26 71 -26 32 0 -18 -55 -92 -69 -92 -3 0 -8 11 -9 25 -2 26 -36
100 -49 108 -5 3 -9 -14 -9 -37 -1 -44 -19 -91 -55 -144 l-22 -33 74 5 c41 3
207 8 369 12 321 6 316 5 340 65 14 32 1 105 -24 141 -11 16 -13 10 -12 -42z"/>
<path d="M8971 4804 c-18 -33 -65 -124 -106 -204 -41 -80 -121 -235 -178 -345
l-104 -200 -56 -3 -57 -3 -30 -59 c-17 -33 -30 -62 -30 -65 0 -3 15 -5 33 -6
75 -1 78 10 -88 -314 l-154 -300 -62 -28 c-57 -26 -188 -61 -197 -53 -2 2 24
25 57 51 65 51 125 124 162 195 17 34 23 63 23 115 1 61 -4 80 -37 150 -21 44
-65 117 -99 163 -33 46 -58 88 -55 95 3 7 31 48 62 92 122 169 138 264 50 301
-89 37 -206 4 -283 -80 -78 -84 -140 -253 -129 -348 6 -48 6 -49 -67 -136 -92
-108 -223 -238 -232 -229 -4 4 -15 -6 -25 -22 -18 -29 -146 -136 -263 -219
-106 -75 -144 -51 -101 67 31 88 91 253 158 436 l55 150 -161 78 c-88 43 -164
74 -168 70 -4 -5 -25 -57 -47 -118 -157 -436 -237 -643 -255 -663 -40 -43
-114 -83 -159 -85 -42 -2 -43 -1 -46 30 -2 18 20 106 49 203 l52 171 -19 47
c-15 37 -28 52 -64 70 -48 24 -600 255 -637 266 -24 8 -9 49 -170 -469 -122
-395 -114 -375 -153 -401 -21 -15 -49 -24 -72 -24 -36 0 -38 2 -38 30 0 17 21
121 46 233 56 249 62 311 40 396 -19 76 -55 128 -102 147 -73 30 -185 9 -274
-52 -45 -31 -51 -33 -45 -15 4 12 49 203 101 424 52 221 97 409 99 418 5 14
-9 14 -117 -7 -68 -13 -162 -31 -210 -40 -60 -11 -88 -20 -88 -30 0 -7 -68
-302 -151 -655 l-150 -642 -41 -48 c-23 -27 -75 -80 -117 -117 -216 -194 -419
-307 -568 -319 -70 -6 -72 -5 -102 25 -28 27 -31 37 -31 90 0 94 70 473 121
662 12 41 39 130 60 197 35 106 45 127 87 171 80 85 185 99 255 34 37 -35 75
-115 83 -174 4 -26 9 -48 11 -48 8 0 203 180 249 229 l42 45 -24 64 c-52 137
-93 189 -180 229 -113 52 -239 54 -392 8 -193 -59 -368 -184 -457 -325 -64
-101 -142 -329 -164 -480 -93 -628 -98 -679 -81 -814 19 -151 73 -226 190
-261 77 -23 261 -16 365 15 159 46 332 156 508 320 48 45 87 79 87 77 0 -3
-14 -63 -30 -133 -17 -70 -29 -128 -28 -129 2 -1 95 16 207 39 l204 41 108
465 c98 423 110 467 134 487 14 13 39 23 56 23 26 0 29 -3 29 -34 0 -19 -15
-99 -34 -178 -19 -78 -50 -208 -69 -288 -46 -191 -51 -228 -37 -281 35 -132
169 -159 363 -71 154 70 284 178 452 373 123 143 198 264 235 375 29 87 47
114 74 114 28 0 66 -27 66 -47 0 -8 -34 -124 -76 -257 -82 -264 -92 -310 -75
-373 26 -96 102 -128 240 -100 102 20 169 47 270 107 91 54 101 58 101 35 0
-27 70 -94 112 -107 113 -34 373 63 568 211 l65 49 7 -38 c15 -85 69 -147 158
-182 79 -31 283 -37 418 -13 81 15 190 47 264 79 12 6 21 0 32 -23 9 -16 33
-43 53 -58 36 -27 40 -28 157 -27 133 1 215 21 364 89 71 33 72 33 72 12 0
-30 39 -96 71 -119 30 -23 87 -37 145 -38 43 0 198 25 229 36 17 7 17 6 0 -19
-14 -22 -14 -28 -4 -31 15 -5 377 -56 395 -56 7 0 123 178 259 395 136 218
259 404 273 415 38 30 102 25 102 -9 0 -16 -81 -149 -278 -460 -51 -80 -97
-163 -103 -185 -23 -84 14 -156 98 -197 41 -20 63 -23 153 -23 94 0 221 22
292 49 12 5 21 -3 33 -28 38 -81 115 -118 334 -164 149 -31 178 -34 281 -30
186 7 385 70 534 167 40 26 85 63 100 83 l26 34 -26 57 -26 56 -43 -38 c-164
-144 -465 -219 -710 -177 -118 20 -135 28 -135 60 0 25 115 204 137 212 7 3
86 -9 175 -27 192 -38 250 -37 329 6 61 34 133 128 204 268 69 134 58 213 -33
252 -57 24 -369 84 -440 84 -160 0 -324 -105 -466 -300 -89 -121 -168 -238
-195 -287 -25 -44 -42 -53 -108 -53 -32 0 -45 5 -53 20 -13 25 -16 20 122 238
123 195 143 236 159 326 29 158 -27 235 -188 255 -92 11 -185 -3 -260 -40
l-63 -30 -108 80 c-59 44 -113 81 -120 83 -12 3 -59 -69 -356 -544 l-136 -216
-51 -11 c-66 -14 -75 -14 -94 5 -24 25 -37 -3 209 438 l117 208 -23 17 c-98
70 -265 181 -273 181 -8 0 -189 -316 -371 -646 -32 -58 -106 -112 -198 -144
-60 -22 -121 -26 -131 -10 -4 6 64 148 151 316 l157 306 56 -5 57 -5 35 69 36
69 -48 0 c-26 0 -51 4 -54 10 -3 5 41 101 98 212 58 112 148 287 201 390 53
104 96 192 96 197 0 4 -71 11 -157 15 -87 4 -179 9 -204 12 l-46 6 -32 -58z
m-986 -570 c0 -6 -18 -31 -39 -55 l-39 -44 6 45 c6 45 29 73 57 68 8 -2 15 -8
15 -14z m-191 -639 c-1 -93 -26 -168 -75 -228 -64 -78 -170 -102 -197 -44 -20
42 -7 126 26 163 15 17 69 79 121 138 l95 107 15 -28 c11 -19 16 -53 15 -108z
m3547 -94 l24 -19 -68 -99 c-105 -152 -88 -138 -153 -124 -32 6 -59 13 -61 15
-7 6 148 215 171 231 28 20 59 19 87 -4z"/>
<path d="M7208 4649 c-63 -15 -152 -65 -190 -107 -146 -161 37 -283 267 -178
97 44 155 115 155 189 0 79 -111 125 -232 96z"/>
<path d="M9630 4494 c-59 -16 -125 -51 -152 -81 -27 -30 -49 -91 -42 -118 3
-14 19 -36 35 -50 114 -95 390 -32 446 104 49 116 -104 194 -287 145z"/>
<path d="M5465 2184 c-136 -267 -145 -287 -128 -299 10 -8 56 -34 103 -58 209
-110 358 -124 443 -44 62 58 61 150 0 218 -34 38 -35 39 -12 39 42 1 107 37
123 69 33 64 13 146 -51 201 -39 34 -138 86 -248 130 -42 17 -77 30 -79 30 -3
0 -70 -129 -151 -286z m293 110 c53 -22 92 -62 92 -95 0 -36 -35 -69 -73 -69
-23 0 -127 37 -127 45 0 9 61 135 65 135 3 0 22 -7 43 -16z m-99 -244 c96 -48
126 -116 75 -167 -22 -22 -32 -25 -72 -20 -26 2 -68 14 -94 25 l-48 21 38 80
c20 44 43 80 50 81 7 0 30 -9 51 -20z"/>
<path d="M9810 2425 l-65 -33 -5 -151 -5 -152 -107 101 c-58 55 -110 100 -115
100 -5 0 -36 -11 -69 -24 -32 -12 -67 -26 -77 -29 -21 -8 27 -51 226 -207
l108 -85 49 -120 c36 -89 52 -119 64 -117 26 5 146 61 146 68 0 3 -17 45 -39
93 -68 152 -66 143 -48 298 29 239 32 293 16 292 -8 0 -43 -16 -79 -34z"/>
<path d="M6439 2023 c-40 -59 -130 -186 -201 -282 -71 -95 -128 -174 -126
-176 2 -2 40 -14 85 -28 l83 -25 50 72 51 73 104 -25 104 -26 6 -83 c4 -45 12
-87 19 -91 6 -5 49 -16 95 -25 l83 -15 -6 41 c-27 170 -48 327 -63 474 l-17
172 -81 20 c-45 11 -89 23 -98 26 -11 5 -34 -21 -88 -102z m143 -190 l6 -113
-27 7 c-99 25 -116 30 -116 39 0 5 27 55 60 111 43 72 62 96 66 85 3 -10 9
-68 11 -129z"/>
<path d="M8841 2086 c-74 -20 -138 -39 -142 -43 -8 -9 109 -613 121 -626 6 -7
159 17 165 26 1 1 -10 56 -26 122 -15 66 -24 123 -20 128 4 4 30 10 57 13 62
8 85 -9 143 -103 71 -117 58 -110 148 -83 43 12 81 24 85 27 11 6 -103 171
-144 209 -18 18 -44 35 -56 39 l-24 7 25 26 c73 76 58 209 -29 262 -61 38
-145 37 -303 -4z m190 -99 c44 -34 50 -93 13 -130 -23 -23 -100 -57 -129 -57
-10 0 -45 127 -45 164 0 28 131 46 161 23z"/>
<path d="M7180 1991 c0 -3 -16 -130 -35 -281 -20 -151 -38 -296 -42 -321 l-5
-46 53 -6 c30 -4 68 -7 86 -7 36 0 38 4 48 131 6 69 10 79 39 108 l33 32 43
-78 c23 -43 60 -108 82 -144 l39 -66 61 -7 c33 -3 81 -6 105 -6 l43 0 -72 108
c-92 136 -168 262 -168 276 0 6 17 29 38 51 21 22 73 81 115 130 l78 90 -97 3
c-63 2 -100 -1 -104 -8 -19 -30 -204 -249 -208 -245 -3 2 1 63 8 135 6 72 10
133 8 135 -6 6 -148 21 -148 16z"/>
<path d="M8295 1989 c-33 -4 -115 -12 -183 -18 -68 -5 -126 -12 -129 -15 -3
-3 0 -150 7 -327 l13 -322 121 7 c67 4 175 14 241 21 66 8 123 15 126 15 6 0
-9 111 -16 118 -2 2 -70 -3 -151 -12 -81 -9 -148 -15 -150 -14 -1 2 -5 37 -9
79 l-7 76 88 6 c49 4 110 9 135 13 l45 6 -7 55 c-4 30 -10 57 -13 60 -3 3 -48
0 -100 -6 -160 -19 -153 -21 -161 50 -4 33 -5 62 -3 64 2 3 59 10 126 16 66 7
125 15 130 18 5 3 7 32 4 64 -5 64 2 61 -107 46z"/>
<path d="M7365 11611 c-20 -9 -20 -10 1 -10 30 -1 34 -23 34 -195 l0 -149 79
5 c140 8 185 56 178 189 -4 81 -25 127 -70 151 -27 14 -195 21 -222 9z m195
-40 c54 -39 64 -192 17 -247 -25 -28 -86 -46 -111 -32 -14 8 -16 30 -16 152 0
78 3 146 7 150 12 11 75 -3 103 -23z"/>
<path d="M7768 11598 c-35 -29 -58 -95 -58 -162 0 -120 43 -176 134 -176 87 0
128 45 141 156 8 72 -6 132 -39 171 -20 23 -33 27 -87 31 -55 3 -68 0 -91 -20z
m138 -19 c16 -18 19 -37 19 -129 0 -95 -3 -112 -21 -137 -30 -40 -88 -40 -117
0 -18 23 -21 41 -20 115 2 128 24 171 89 172 19 0 38 -8 50 -21z"/>
<path d="M7260 11603 c0 -5 7 -66 14 -138 8 -71 13 -131 11 -133 -1 -1 -44 56
-94 128 -99 139 -103 142 -171 120 -23 -7 -23 -8 -3 -9 12 -1 24 -9 27 -18 5
-15 36 -290 36 -315 0 -5 7 -8 15 -8 18 0 18 17 1 175 -8 66 -13 121 -12 123
2 1 47 -61 102 -137 90 -127 123 -159 137 -133 3 5 -27 326 -32 350 -2 6 -31
1 -31 -5z"/>
<path d="M8030 11602 c0 -5 9 -12 20 -15 25 -6 25 -19 1 -199 -16 -130 -16
-138 0 -138 14 0 19 18 29 114 21 194 20 192 59 95 19 -46 45 -107 58 -136 13
-28 27 -63 33 -77 6 -16 17 -26 30 -26 11 0 20 1 20 3 0 1 9 74 20 162 24 190
24 185 6 185 -13 0 -22 -44 -42 -215 l-7 -60 -22 50 c-13 28 -42 96 -66 153
-41 100 -43 102 -75 102 -18 0 -39 3 -48 6 -9 3 -16 2 -16 -4z"/>
<path d="M6873 11563 c-35 -5 -46 -23 -14 -23 22 0 22 0 51 -187 22 -140 23
-143 48 -143 23 0 24 3 18 38 -3 20 -16 101 -28 180 -13 83 -26 141 -32 140
-6 0 -26 -3 -43 -5z"/>
<path d="M8380 11564 c0 -4 8 -12 17 -19 16 -12 15 -23 -13 -174 -17 -89 -30
-161 -30 -161 21 -9 193 -36 197 -32 12 13 19 62 9 62 -5 0 -10 -4 -10 -10 0
-22 -39 -30 -89 -19 -57 12 -58 13 -40 102 9 44 16 57 30 57 33 0 70 -20 78
-42 7 -20 10 -15 20 30 14 69 14 71 -8 43 -16 -20 -23 -22 -60 -16 -39 6 -42
9 -37 33 3 15 8 44 12 65 5 32 10 37 34 37 35 0 82 -17 92 -33 4 -7 8 -25 8
-42 1 -30 1 -30 11 -5 6 13 9 38 7 54 -3 28 -6 30 -93 47 -49 10 -100 21 -112
24 -13 3 -23 2 -23 -1z"/>
<path d="M6542 11499 c-96 -19 -134 -81 -113 -185 22 -114 81 -174 168 -174
42 0 123 33 123 50 0 13 -1 13 -43 -5 -100 -42 -167 7 -196 142 -14 66 -5 108
27 133 40 32 85 26 122 -16 17 -20 32 -35 34 -33 1 2 -4 25 -11 52 -16 52 -22
54 -111 36z"/>
<path d="M8675 11465 c-17 -16 -25 -35 -25 -60 0 -30 9 -44 59 -93 72 -71 81
-95 50 -128 -48 -51 -139 -16 -139 54 0 51 -18 28 -22 -27 l-3 -45 50 -19
c101 -38 185 -2 185 80 0 31 -9 45 -65 101 -69 70 -79 97 -45 127 14 13 28 16
54 11 41 -8 66 -38 66 -80 0 -41 16 -21 24 30 6 41 5 42 -34 58 -62 25 -126
21 -155 -9z"/>
<path d="M8928 11431 c27 -20 28 -12 -36 -230 -17 -58 -30 -106 -29 -107 1 -1
12 -5 24 -8 19 -6 23 -2 33 36 6 24 27 94 46 157 19 62 34 121 34 131 0 11
-13 21 -39 28 -53 16 -60 15 -33 -7z"/>
<path d="M6255 11423 c-31 -8 -42 -23 -17 -23 28 0 31 -8 79 -182 20 -76 42
-138 48 -138 38 1 38 16 -9 180 -25 89 -46 164 -46 166 0 5 -28 3 -55 -3z"/>
<path d="M6099 11374 c-64 -19 -99 -54 -99 -98 0 -56 33 -85 109 -97 92 -14
121 -32 121 -75 0 -24 -34 -58 -68 -69 -30 -9 -80 12 -87 36 -4 10 -11 19 -17
19 -5 0 -8 -3 -6 -7 2 -5 10 -25 18 -45 9 -25 20 -38 33 -38 41 0 107 24 138
50 28 23 34 34 34 68 0 68 -65 112 -162 112 -42 0 -73 26 -73 60 0 35 31 60
75 60 34 0 56 -14 73 -45 19 -34 15 9 -5 50 -19 39 -20 39 -84 19z"/>
<path d="M9194 11355 c21 -16 22 -16 -131 -196 -40 -47 -73 -91 -73 -98 0 -24
26 -9 59 34 18 25 39 45 45 45 7 0 34 -7 60 -16 53 -18 66 -39 66 -108 0 -37
4 -45 22 -49 12 -4 23 -5 24 -4 1 1 -1 87 -4 191 l-5 188 -33 14 c-42 18 -54
17 -30 -1z m13 -221 c-6 -6 -98 28 -95 35 2 4 23 32 48 62 l45 55 3 -74 c2
-41 1 -76 -1 -78z"/>
<path d="M5845 11285 c-46 -16 -95 -66 -95 -96 0 -29 26 -75 47 -84 10 -4 46
-11 81 -15 79 -10 112 -31 112 -70 0 -64 -111 -98 -146 -45 -25 38 -30 21 -9
-26 19 -40 20 -41 59 -35 94 15 158 83 140 146 -14 49 -49 70 -131 78 -105 12
-141 52 -90 100 34 32 89 30 116 -5 30 -37 36 -22 11 26 -22 45 -33 48 -95 26z"/>
<path d="M9430 11270 c0 -5 4 -10 9 -10 26 0 15 -45 -43 -181 -57 -131 -67
-173 -37 -155 4 3 32 62 61 131 30 69 57 122 61 118 3 -5 14 -78 23 -162 10
-85 19 -159 22 -163 3 -4 13 -8 22 -8 12 0 34 40 79 148 70 167 73 177 54 177
-9 0 -35 -48 -67 -125 -60 -142 -55 -145 -79 59 -9 74 -17 136 -18 137 -18 14
-87 42 -87 34z"/>
<path d="M5513 11138 c-25 -12 -32 -31 -9 -22 8 3 16 2 19 -3 3 -4 10 -75 16
-158 14 -177 18 -198 34 -192 8 2 11 24 9 70 l-4 66 57 26 57 26 44 -41 c49
-45 47 -44 76 -29 20 11 20 12 -8 37 -16 14 -77 72 -137 129 -59 57 -113 103
-120 102 -6 0 -22 -5 -34 -11z m157 -169 c0 -3 -21 -16 -47 -27 l-48 -21 -7
42 c-3 23 -7 60 -7 82 l-1 39 55 -54 c30 -30 55 -57 55 -61z"/>
<path d="M9893 11049 c9 -5 17 -17 17 -26 0 -8 -31 -72 -69 -142 -38 -69 -71
-132 -73 -139 -5 -20 119 -82 165 -82 55 0 90 40 85 95 -3 22 -8 47 -12 55 -5
11 0 16 15 17 30 3 57 31 65 69 4 24 0 37 -20 61 -25 30 -152 103 -177 103 -9
-1 -8 -4 4 -11z m124 -81 c13 -12 23 -32 23 -45 0 -25 -40 -73 -61 -73 -13 0
-79 30 -79 36 0 2 12 27 27 54 30 56 53 63 90 28z m-89 -128 c45 -27 57 -62
36 -105 -19 -42 -59 -53 -103 -31 -16 9 -32 20 -35 24 -5 9 55 132 64 132 3 0
20 -9 38 -20z"/>
<path d="M5178 10956 c-43 -24 -49 -35 -15 -29 29 6 29 5 117 -147 39 -69 73
-126 75 -128 4 -5 154 78 160 89 5 8 -31 89 -39 89 -2 0 -1 -20 1 -44 5 -44 5
-45 -35 -65 -23 -12 -46 -21 -51 -21 -5 0 -44 61 -86 135 -42 74 -80 136 -83
138 -4 2 -24 -6 -44 -17z"/>
<path d="M5060 10884 c-92 -40 -130 -99 -111 -171 26 -96 118 -183 192 -183
50 0 165 77 145 97 -3 4 -16 -3 -29 -14 -83 -76 -168 -51 -238 71 -38 67 -39
117 -2 145 41 33 68 36 108 12 49 -29 51 -27 18 19 -31 44 -34 45 -83 24z"/>
<path d="M10289 10826 c13 -16 -4 -30 -186 -156 -51 -35 -93 -67 -93 -71 0
-22 24 -16 70 17 l51 36 55 -36 c39 -26 54 -42 50 -54 -27 -93 -28 -104 -9
-117 10 -8 21 -11 24 -7 4 4 26 87 50 186 l42 178 -24 19 c-29 22 -46 25 -30
5z m-25 -150 l-17 -75 -44 30 c-24 17 -43 33 -43 37 1 9 114 92 119 87 1 -2
-5 -37 -15 -79z"/>
<path d="M10490 10691 c0 -5 5 -13 10 -16 22 -13 6 -41 -85 -157 -52 -65 -95
-123 -95 -127 0 -5 7 -14 15 -21 13 -11 18 -10 28 3 7 8 30 38 51 66 22 28 41
50 42 48 1 -1 4 -51 7 -111 4 -92 8 -112 23 -123 18 -13 19 -9 22 115 l3 129
94 13 c52 7 95 16 95 20 0 9 -44 50 -54 50 -4 0 -5 -8 -1 -19 5 -16 -3 -19
-64 -30 -109 -17 -108 -18 -57 46 l45 58 -22 23 c-27 29 -57 47 -57 33z"/>
<path d="M4600 10564 c-47 -36 -86 -69 -88 -73 -1 -4 10 -7 25 -6 27 0 26 1
195 -215 l27 -34 75 58 c42 32 78 61 81 65 2 4 -7 20 -21 37 l-25 29 6 -29 c5
-24 0 -34 -35 -67 -22 -21 -45 -39 -50 -39 -5 0 -30 25 -55 57 l-46 56 28 23
c31 26 53 30 71 12 21 -21 13 5 -14 44 -31 45 -40 47 -39 12 0 -18 -10 -34
-28 -48 l-29 -21 -38 45 c-22 25 -40 50 -40 56 0 18 66 64 93 64 14 0 30 -7
37 -15 27 -32 29 -13 3 20 -15 19 -32 35 -38 35 -5 0 -48 -30 -95 -66z"/>
<path d="M10760 10481 c0 -5 5 -13 10 -16 15 -9 -4 -39 -105 -159 -49 -59 -90
-111 -90 -116 0 -5 33 -36 74 -70 l73 -62 26 26 c29 29 25 44 -8 26 -18 -10
-28 -7 -62 16 -61 43 -61 50 10 132 l28 34 33 -27 c25 -22 31 -33 27 -51 -8
-32 -1 -30 34 9 36 39 37 49 6 41 -16 -4 -32 2 -51 19 -32 27 -30 34 23 91
l33 37 40 -31 c41 -33 49 -61 28 -103 -7 -15 -1 -12 20 11 17 18 31 38 30 45
0 10 -39 46 -150 135 -16 13 -29 19 -29 13z"/>
<path d="M4450 10445 c-11 -14 -7 -22 26 -58 71 -75 71 -71 24 -114 -24 -21
-47 -40 -53 -42 -6 -2 -34 22 -63 55 l-52 58 -123 -120 -122 -121 33 -37 c37
-40 51 -42 25 -2 -19 28 -14 55 14 80 18 16 24 11 132 -103 105 -110 116 -119
133 -106 18 13 15 18 -42 82 -33 37 -83 90 -111 118 -28 27 -51 55 -51 62 0 7
14 20 31 28 28 15 33 15 54 1 39 -26 41 -18 5 19 -33 34 -34 35 -9 35 18 0 48
-28 124 -115 55 -62 105 -114 111 -114 6 -1 17 6 24 14 10 12 2 25 -46 75
l-57 60 24 26 c13 14 37 35 53 47 l29 20 56 -61 c52 -57 57 -61 75 -47 18 13
12 22 -98 145 -65 71 -121 130 -125 130 -5 0 -14 -7 -21 -15z"/>
<path d="M10980 10283 c0 -5 5 -14 11 -20 8 -8 -21 -45 -104 -134 -110 -118
-115 -125 -99 -142 16 -18 19 -16 81 49 36 38 67 62 69 55 2 -6 -6 -57 -19
-111 -18 -81 -20 -102 -9 -115 7 -8 16 -15 19 -15 4 0 18 45 31 100 13 55 26
100 30 100 3 0 11 -5 18 -12 16 -16 81 -12 103 7 46 43 28 103 -54 181 -58 56
-77 69 -77 57z m87 -105 c43 -40 19 -108 -38 -108 -15 0 -41 11 -56 24 l-28
25 40 40 c21 23 43 41 49 41 5 0 20 -10 33 -22z"/>
<path d="M11200 10076 c0 -4 5 -16 11 -27 8 -16 3 -42 -21 -117 -29 -92 -35
-100 -89 -147 -46 -40 -56 -54 -49 -67 13 -28 27 -22 87 35 56 53 56 53 164
72 101 17 126 28 92 41 -14 6 -108 -8 -162 -22 l-21 -6 24 76 c31 98 30 106
-6 141 -16 16 -30 25 -30 21z"/>
</g>
</svg>
