<svg width="66" height="66" viewBox="0 0 66 66" fill="none" xmlns="http://www.w3.org/2000/svg">
<path d="M32.5369 0C23.7003 0 22.5923 0.0374852 19.1219 0.195756C15.6587 0.353736 13.2935 0.903809 11.2239 1.70795C9.0843 2.5394 7.2698 3.65195 5.46102 5.46063C3.65214 7.26931 2.53954 9.08391 1.70814 11.2234C0.903761 13.2928 0.353852 15.6579 0.19567 19.1208C0.0373903 22.5911 0 23.6991 0 32.5351C0 41.3709 0.0373903 42.4789 0.19567 45.9492C0.353852 49.4121 0.903761 51.7772 1.70814 53.8466C2.53964 55.9861 3.65224 57.8005 5.46102 59.6094C7.2699 61.418 9.0843 62.5306 11.2239 63.3621C13.2935 64.1662 15.6587 64.7162 19.1219 64.8742C22.5923 65.0325 23.7003 65.07 32.5369 65.07C41.3732 65.07 42.4812 65.0325 45.9516 64.8742C49.4148 64.7163 51.78 64.1662 53.8495 63.3621C55.9891 62.5306 57.8036 61.418 59.6126 59.6094C61.4214 57.8005 62.534 55.9861 63.3655 53.8466C64.1697 51.7772 64.7198 49.4121 64.8777 45.9492C65.036 42.4789 65.0735 41.3709 65.0735 32.5351C65.0735 23.6991 65.036 22.5911 64.8777 19.1208C64.7198 15.6579 64.1697 13.2928 63.3655 11.2234C62.534 9.08391 61.4214 7.26931 59.6126 5.46063C57.8036 3.65195 55.9891 2.5394 53.8495 1.70795C51.78 0.903809 49.4148 0.353736 45.9516 0.195756C42.4812 0.0374852 41.3732 0 32.5369 0ZM32.5369 5.86212C41.2244 5.86212 42.2535 5.89534 45.6844 6.05187C48.8568 6.19648 50.5795 6.72651 51.7259 7.17207C53.2448 7.76234 54.3286 8.46729 55.4671 9.60579C56.6058 10.7443 57.3108 11.8282 57.9011 13.3468C58.3466 14.4932 58.8767 16.216 59.0213 19.3881C59.1778 22.8188 59.2111 23.8478 59.2111 32.535C59.2111 41.2222 59.1778 42.2512 59.0213 45.6819C58.8767 48.8541 58.3466 50.5768 57.9011 51.7231C57.3108 53.2419 56.6058 54.3257 55.4671 55.4641C54.3286 56.6027 53.2447 57.3077 51.726 57.8979C50.5795 58.3435 48.8567 58.8735 45.6844 59.0181C42.2541 59.1747 41.2251 59.2079 32.5368 59.2079C23.8484 59.2079 22.8196 59.1747 19.3891 59.018C16.2167 58.8735 14.494 58.3435 13.3476 57.8979C11.8287 57.3077 10.7449 56.6027 9.60641 55.4641C8.46784 54.3257 7.76276 53.2418 7.17245 51.7232C6.72687 50.5768 6.19691 48.854 6.0522 45.6819C5.89566 42.2512 5.86244 41.2222 5.86244 32.535C5.86244 23.8478 5.89566 22.8188 6.0522 19.3881C6.19691 16.2159 6.72687 14.4932 7.17245 13.3469C7.76276 11.8281 8.46784 10.7443 9.60631 9.60589C10.7449 8.46729 11.8288 7.76234 13.3475 7.17207C14.494 6.72651 16.2168 6.19648 19.3891 6.05187C22.82 5.89534 23.8491 5.86212 32.5368 5.86212" fill="white"/>
<path d="M32.5372 43.38C26.5472 43.38 21.6915 38.5245 21.6915 32.535C21.6915 26.5454 26.5472 21.6899 32.5372 21.6899C38.5271 21.6899 43.3828 26.5454 43.3828 32.535C43.3828 38.5245 38.5271 43.38 32.5372 43.38ZM32.5372 15.8278C23.3095 15.8278 15.8291 23.3078 15.8291 32.535C15.8291 41.7621 23.3095 49.2421 32.5372 49.2421C41.7648 49.2421 49.2452 41.7621 49.2452 32.535C49.2452 23.3078 41.7648 15.8278 32.5372 15.8278V15.8278ZM53.8098 15.1677C53.8098 17.324 52.0617 19.0719 49.9053 19.0719C47.7491 19.0719 46.001 17.324 46.001 15.1677C46.001 13.0115 47.7491 11.2634 49.9053 11.2634C52.0617 11.2634 53.8098 13.0115 53.8098 15.1677" fill="white"/>
</svg>
