<svg width="48" height="48" viewBox="0 0 48 48" fill="none" xmlns="http://www.w3.org/2000/svg">
<g clip-path="url(#clip0_19_119)">
<path fill-rule="evenodd" clip-rule="evenodd" d="M21.0819 15.0807C22.3145 13.4196 22.7565 11.6689 21.3624 10.1236C18.2341 5.74619 16.1302 3.03918 14.8105 1.73556C12.3017 -0.742791 8.17451 -0.407556 6.00163 1.73345C4.83455 2.8834 4.43945 3.2783 3.24114 4.49546C-3.43373 11.1739 0.636951 25.292 11.4583 36.1239C22.2771 46.9535 36.3939 51.0262 43.0826 44.3336C44.1884 43.2676 45.1246 42.3309 45.8631 41.5504C47.9923 39.2998 48.3157 35.3548 45.849 32.7918C44.5846 31.4778 42.003 29.4754 37.4414 26.2125C36.0444 24.9632 34.3878 25.2339 32.869 26.2303C32.1387 26.7097 31.6069 27.1943 30.603 28.1992L28.7801 30.0233C28.5401 30.2635 25.2798 28.6308 22.1149 25.4628C18.9484 22.2932 17.3168 19.0327 17.5558 18.7937L19.3799 16.9685C19.6985 16.6497 19.8507 16.4954 20.046 16.2901C20.4529 15.8625 20.7897 15.4745 21.0819 15.0807ZM32.1427 33.3877L33.966 31.5635C34.5187 31.0103 34.8767 30.6704 35.1679 30.436C39.1641 33.3057 41.4782 35.11 42.4236 36.0923C42.9911 36.6818 42.903 37.7579 42.4096 38.2794C41.7268 39.0009 40.8396 39.8886 39.751 40.9387C35.4258 45.2658 24.0305 41.9779 14.8217 32.7601C5.60994 23.5393 2.32379 12.1422 6.6164 7.84729C7.80989 6.63513 8.18802 6.25719 9.33842 5.12363C9.76977 4.69863 10.9447 4.60318 11.4694 5.12151C12.4854 6.1252 14.3701 8.53841 17.1427 12.4005C16.9991 12.5787 16.8199 12.78 16.6017 13.0093C16.4416 13.1776 16.3082 13.3128 16.0166 13.6047L14.1941 15.4281C11.0938 18.5282 13.7342 23.8044 18.7515 28.8266C23.7655 33.8455 29.0435 36.4886 32.1427 33.3877Z" fill="white"/>
</g>
<defs>
<clipPath id="clip0_19_119">
<rect width="48" height="48" fill="white"/>
</clipPath>
</defs>
</svg>
